<?xml version="1.0" encoding="UTF-8" standalone="no"?>
<svg
   width="67.276pt"
   height="53.382pt"
   viewBox="0 0 67.276 53.382"
   version="1.1"
   id="svg13"
   sodipodi:docname="texture.pdf"
   xmlns:inkscape="http://www.inkscape.org/namespaces/inkscape"
   xmlns:sodipodi="http://sodipodi.sourceforge.net/DTD/sodipodi-0.dtd"
   xmlns:xlink="http://www.w3.org/1999/xlink"
   xmlns="http://www.w3.org/2000/svg"
   xmlns:svg="http://www.w3.org/2000/svg">
  <sodipodi:namedview
     id="namedview13"
     pagecolor="#ffffff"
     bordercolor="#000000"
     borderopacity="0.25"
     inkscape:showpageshadow="2"
     inkscape:pageopacity="0.0"
     inkscape:pagecheckerboard="0"
     inkscape:deskcolor="#d1d1d1"
     inkscape:document-units="pt" />
  <defs
     id="defs4">
    <g
       id="g4">
      <g
         id="glyph-0-0">
        <path
           d="M 4.578125 -3.1875 C 4.578125 -3.984375 4.53125 -4.78125 4.1875 -5.515625 C 3.734375 -6.484375 2.90625 -6.640625 2.5 -6.640625 C 1.890625 -6.640625 1.171875 -6.375 0.75 -5.453125 C 0.4375 -4.765625 0.390625 -3.984375 0.390625 -3.1875 C 0.390625 -2.4375 0.421875 -1.546875 0.84375 -0.78125 C 1.265625 0.015625 2 0.21875 2.484375 0.21875 C 3.015625 0.21875 3.78125 0.015625 4.21875 -0.9375 C 4.53125 -1.625 4.578125 -2.40625 4.578125 -3.1875 Z M 2.484375 0 C 2.09375 0 1.5 -0.25 1.328125 -1.203125 C 1.21875 -1.796875 1.21875 -2.71875 1.21875 -3.3125 C 1.21875 -3.953125 1.21875 -4.609375 1.296875 -5.140625 C 1.484375 -6.328125 2.234375 -6.421875 2.484375 -6.421875 C 2.8125 -6.421875 3.46875 -6.234375 3.65625 -5.25 C 3.765625 -4.6875 3.765625 -3.9375 3.765625 -3.3125 C 3.765625 -2.5625 3.765625 -1.890625 3.65625 -1.25 C 3.5 -0.296875 2.9375 0 2.484375 0 Z M 2.484375 0 "
           id="path1" />
      </g>
      <g
         id="glyph-1-0">
        <path
           d="M 2.0625 -1.671875 C 1.265625 -1.5625 0.40625 -1.125 0.0625 -0.359375 C -0.015625 -0.203125 -0.046875 -0.03125 -0.078125 0.125 C -0.09375 0.265625 -0.078125 0.390625 -0.046875 0.53125 C 0.140625 1.375 1.046875 1.75 1.84375 1.640625 C 2.640625 1.5625 3.5 1.15625 3.84375 0.375 C 3.921875 0.234375 3.953125 0.0625 3.984375 -0.109375 C 3.984375 -0.25 3.984375 -0.375 3.953125 -0.515625 C 3.78125 -1.34375 2.875 -1.78125 2.0625 -1.671875 Z M 3.546875 -0.234375 C 3.484375 0.046875 3.234375 0.234375 3.015625 0.375 C 2.71875 0.5625 2.390625 0.671875 2.0625 0.78125 C 1.765625 0.875 1.484375 0.96875 1.171875 1 C 0.734375 1.015625 0.234375 0.734375 0.34375 0.234375 C 0.40625 -0.03125 0.65625 -0.25 0.890625 -0.375 C 1.25 -0.59375 1.65625 -0.734375 2.0625 -0.859375 C 2.28125 -0.921875 2.5 -0.984375 2.734375 -1 C 3.15625 -1 3.6875 -0.734375 3.546875 -0.234375 Z M 3.546875 -0.234375 "
           id="path2" />
      </g>
      <g
         id="glyph-1-1">
        <path
           d="M 0 -6.40625 L 0 1.5625 L 0.40625 1.5625 L 0.40625 -6.40625 Z M 0 -6.40625 "
           id="path3" />
      </g>
      <g
         id="glyph-1-2">
        <path
           d="M 1.8125 -3.734375 C 1.734375 -3.71875 1.671875 -3.703125 1.609375 -3.640625 C 1.140625 -3.328125 1.46875 -2.59375 2.015625 -2.6875 C 2.09375 -2.703125 2.15625 -2.734375 2.21875 -2.78125 C 2.671875 -3.09375 2.359375 -3.84375 1.8125 -3.734375 Z M 1.8125 -3.734375 "
           id="path4" />
      </g>
    </g>
  </defs>
  <path
     fill="none"
     stroke-width="0.99628"
     stroke-linecap="butt"
     stroke-linejoin="miter"
     stroke="rgb(15.293884%, 21.174622%, 33.724976%)"
     stroke-opacity="1"
     stroke-miterlimit="10"
     d="M 0.0008125 0.00128125 L 51.02425 0.00128125 M 0.0008125 8.505187 L 51.02425 8.505187 M 0.0008125 17.009094 L 51.02425 17.009094 M 0.0008125 25.513 L 51.02425 25.513 M 0.0008125 34.016906 L 51.02425 34.016906 M 0.0008125 0.00128125 L 0.0008125 34.016906 M 8.504719 0.00128125 L 8.504719 34.016906 M 17.008625 0.00128125 L 17.008625 34.016906 M 25.512531 0.00128125 L 25.512531 34.016906 M 34.016438 0.00128125 L 34.016438 34.016906 M 42.520344 0.00128125 L 42.520344 34.016906 M 51.02425 0.00128125 L 51.02425 34.016906 "
     transform="matrix(1, 0, 0, -1, 9.132, 35.513)"
     id="path5" />
  <path
     fill="none"
     stroke-width="0.99628"
     stroke-linecap="butt"
     stroke-linejoin="miter"
     stroke="rgb(15.293884%, 21.174622%, 33.724976%)"
     stroke-opacity="1"
     stroke-miterlimit="10"
     d="M -0.000875 -0.00040625 L 3.862406 3.858969 M -0.000875 3.858969 L 3.862406 -0.00040625 "
     transform="matrix(1, 0, 0, -1, 11.454, 33.191)"
     id="path6" />
  <path
     fill="none"
     stroke-width="0.99628"
     stroke-linecap="butt"
     stroke-linejoin="miter"
     stroke="rgb(15.293884%, 21.174622%, 33.724976%)"
     stroke-opacity="1"
     stroke-miterlimit="10"
     d="M -0.00115625 -0.0005 L 3.862125 3.858875 M -0.00115625 3.858875 L 3.862125 -0.0005 "
     transform="matrix(1, 0, 0, -1, 36.966, 24.687)"
     id="path7" />
  <path
     fill-rule="nonzero"
     fill="rgb(15.293884%, 21.174622%, 33.724976%)"
     fill-opacity="1"
     stroke-width="0.3985"
     stroke-linecap="butt"
     stroke-linejoin="miter"
     stroke="rgb(15.293884%, 21.174622%, 33.724976%)"
     stroke-opacity="1"
     stroke-miterlimit="10"
     d="M 0.642969 -0.0008125 C 0.642969 0.354656 0.353906 0.643719 -0.0015625 0.643719 C -0.357031 0.643719 -0.642187 0.354656 -0.642187 -0.0008125 C -0.642187 -0.356281 -0.357031 -0.645344 -0.0015625 -0.645344 C 0.353906 -0.645344 0.642969 -0.356281 0.642969 -0.0008125 Z M 0.642969 -0.0008125 "
     transform="matrix(1, 0, 0, -1, 47.4, 22.757)"
     id="path8" />
  <path
     fill="none"
     stroke-width="0.99628"
     stroke-linecap="butt"
     stroke-linejoin="miter"
     stroke="rgb(15.293884%, 21.174622%, 33.724976%)"
     stroke-opacity="1"
     stroke-miterlimit="10"
     d="M -0.0010625 -0.00059375 L 3.862219 3.858781 M -0.0010625 3.858781 L 3.862219 -0.00059375 "
     transform="matrix(1, 0, 0, -1, 28.462, 16.183)"
     id="path9" />
  <path
     fill="none"
     stroke-width="0.99628"
     stroke-linecap="butt"
     stroke-linejoin="miter"
     stroke="rgb(15.293884%, 21.174622%, 33.724976%)"
     stroke-opacity="1"
     stroke-miterlimit="10"
     d="M -0.00096875 -0.0006875 L 3.862312 3.858687 M -0.00096875 3.858687 L 3.862312 -0.0006875 "
     transform="matrix(1, 0, 0, -1, 19.958, 7.679)"
     id="path10" />
  <g
     fill="rgb(15.293884%, 21.174622%, 33.724976%)"
     fill-opacity="1"
     id="g10">
    <use
       xlink:href="#glyph-0-0"
       x="6.641"
       y="50.062"
       id="use10" />
  </g>
  <g
     fill="rgb(15.293884%, 21.174622%, 33.724976%)"
     fill-opacity="1"
     id="g11">
    <use
       xlink:href="#glyph-1-0"
       x="56.549"
       y="46.134"
       id="use11" />
  </g>
  <g
     fill="rgb(15.293884%, 21.174622%, 33.724976%)"
     fill-opacity="1"
     id="g12">
    <use
       xlink:href="#glyph-1-1"
       x="60.129"
       y="44.381"
       id="use12" />
  </g>
  <g
     fill="rgb(15.293884%, 21.174622%, 33.724976%)"
     fill-opacity="1"
     id="g13">
    <use
       xlink:href="#glyph-1-2"
       x="60.129"
       y="49.322"
       id="use13" />
  </g>
</svg>
