<?xml version="1.0" encoding="UTF-8" standalone="no"?>
<svg
   width="236.103pt"
   height="56.336pt"
   viewBox="0 0 236.103 56.336"
   version="1.1"
   id="svg19"
   sodipodi:docname="texture.pdf"
   xmlns:inkscape="http://www.inkscape.org/namespaces/inkscape"
   xmlns:sodipodi="http://sodipodi.sourceforge.net/DTD/sodipodi-0.dtd"
   xmlns:xlink="http://www.w3.org/1999/xlink"
   xmlns="http://www.w3.org/2000/svg"
   xmlns:svg="http://www.w3.org/2000/svg">
  <sodipodi:namedview
     id="namedview19"
     pagecolor="#ffffff"
     bordercolor="#000000"
     borderopacity="0.25"
     inkscape:showpageshadow="2"
     inkscape:pageopacity="0.0"
     inkscape:pagecheckerboard="0"
     inkscape:deskcolor="#d1d1d1"
     inkscape:document-units="pt" />
  <defs
     id="defs4">
    <g
       id="g3">
      <g
         id="glyph-0-0">
        <path
           d="M 4.578125 -3.1875 C 4.578125 -3.984375 4.53125 -4.78125 4.1875 -5.515625 C 3.734375 -6.484375 2.90625 -6.640625 2.5 -6.640625 C 1.890625 -6.640625 1.171875 -6.375 0.75 -5.453125 C 0.4375 -4.765625 0.390625 -3.984375 0.390625 -3.1875 C 0.390625 -2.4375 0.421875 -1.546875 0.84375 -0.78125 C 1.265625 0.015625 2 0.21875 2.484375 0.21875 C 3.015625 0.21875 3.78125 0.015625 4.21875 -0.9375 C 4.53125 -1.625 4.578125 -2.40625 4.578125 -3.1875 Z M 2.484375 0 C 2.09375 0 1.5 -0.25 1.328125 -1.203125 C 1.21875 -1.796875 1.21875 -2.71875 1.21875 -3.3125 C 1.21875 -3.953125 1.21875 -4.609375 1.296875 -5.140625 C 1.484375 -6.328125 2.234375 -6.421875 2.484375 -6.421875 C 2.8125 -6.421875 3.46875 -6.234375 3.65625 -5.25 C 3.765625 -4.6875 3.765625 -3.9375 3.765625 -3.3125 C 3.765625 -2.5625 3.765625 -1.890625 3.65625 -1.25 C 3.5 -0.296875 2.9375 0 2.484375 0 Z M 2.484375 0 "
           id="path1" />
      </g>
      <g
         id="glyph-1-0">
        <path
           d="M 2.21875 -1.59375 C 1.390625 -1.484375 0.515625 -1.09375 0.109375 -0.328125 C 0.03125 -0.1875 -0.03125 -0.03125 -0.046875 0.125 C -0.078125 0.25 -0.09375 0.375 -0.0625 0.484375 C 0.046875 1.328125 1.015625 1.625 1.765625 1.546875 C 2.609375 1.4375 3.515625 1.015625 3.921875 0.234375 C 3.984375 0.09375 4.046875 -0.046875 4.0625 -0.203125 C 4.078125 -0.3125 4.09375 -0.453125 4.0625 -0.5625 C 3.921875 -1.390625 2.953125 -1.703125 2.21875 -1.59375 Z M 2.21875 -1.59375 "
           id="path2" />
      </g>
      <g
         id="glyph-1-1">
        <path
           d="M 0 -6.40625 L 0 1.5625 L 0.40625 1.5625 L 0.40625 -6.40625 Z M 0 -6.40625 "
           id="path3" />
      </g>
    </g>
    <clipPath
       id="clip-0">
      <path
         clip-rule="nonzero"
         d="M 8 0 L 236.101562 0 L 236.101562 43 L 8 43 Z M 8 0 "
         id="path4" />
    </clipPath>
  </defs>
  <g
     clip-path="url(#clip-0)"
     id="g5">
    <path
       fill="none"
       stroke-width="0.3985"
       stroke-linecap="butt"
       stroke-linejoin="miter"
       stroke="rgb(0%, 23.527527%, 39.99939%)"
       stroke-opacity="1"
       stroke-miterlimit="10"
       d="M 0.0008125 0.00025 L 226.77425 0.00025 M 0.0008125 14.172125 L 226.77425 14.172125 M 0.0008125 28.347906 L 226.77425 28.347906 M 0.0008125 42.519781 L 226.77425 42.519781 M 0.0008125 0.00025 L 0.0008125 42.519781 M 14.172688 0.00025 L 14.172688 42.519781 M 28.348469 0.00025 L 28.348469 42.519781 M 42.520344 0.00025 L 42.520344 42.519781 M 56.692219 0.00025 L 56.692219 42.519781 M 70.868 0.00025 L 70.868 42.519781 M 85.039875 0.00025 L 85.039875 42.519781 M 99.215656 0.00025 L 99.215656 42.519781 M 113.387531 0.00025 L 113.387531 42.519781 M 127.559406 0.00025 L 127.559406 42.519781 M 141.735187 0.00025 L 141.735187 42.519781 M 155.907062 0.00025 L 155.907062 42.519781 M 170.078937 0.00025 L 170.078937 42.519781 M 184.254719 0.00025 L 184.254719 42.519781 M 198.426594 0.00025 L 198.426594 42.519781 M 212.602375 0.00025 L 212.602375 42.519781 M 226.77425 0.00025 L 226.77425 42.519781 "
       transform="matrix(1, 0, 0, -1, 9.132, 42.719)"
       id="path5" />
  </g>
  <path
     fill="none"
     stroke-width="1.07237"
     stroke-linecap="butt"
     stroke-linejoin="miter"
     stroke="rgb(0%, 23.527527%, 39.99939%)"
     stroke-opacity="1"
     stroke-miterlimit="10"
     d="M 0.00190625 0.00134375 L 6.4355 6.434938 M 0.00190625 6.434938 L 6.4355 0.00134375 "
     transform="matrix(1, 0, 0, -1, 13.002, 38.849)"
     id="path6" />
  <path
     fill-rule="nonzero"
     fill="rgb(0%, 23.527527%, 39.99939%)"
     fill-opacity="1"
     stroke-width="0.3985"
     stroke-linecap="butt"
     stroke-linejoin="miter"
     stroke="rgb(0%, 23.527527%, 39.99939%)"
     stroke-opacity="1"
     stroke-miterlimit="10"
     d="M 1.072844 -0.0008125 C 1.072844 0.592938 0.592375 1.073406 -0.001375 1.073406 C -0.591219 1.073406 -1.071687 0.592938 -1.071687 -0.0008125 C -1.071687 -0.590656 -0.591219 -1.071125 -0.001375 -1.071125 C 0.592375 -1.071125 1.072844 -0.590656 1.072844 -0.0008125 Z M 1.072844 -0.0008125 "
     transform="matrix(1, 0, 0, -1, 30.392, 35.632)"
     id="path7" />
  <path
     fill-rule="nonzero"
     fill="rgb(0%, 23.527527%, 39.99939%)"
     fill-opacity="1"
     stroke-width="0.3985"
     stroke-linecap="butt"
     stroke-linejoin="miter"
     stroke="rgb(0%, 23.527527%, 39.99939%)"
     stroke-opacity="1"
     stroke-miterlimit="10"
     d="M 1.071719 -0.0008125 C 1.071719 0.592938 0.59125 1.073406 0.00140625 1.073406 C -0.592344 1.073406 -1.072812 0.592938 -1.072812 -0.0008125 C -1.072812 -0.590656 -0.592344 -1.071125 0.00140625 -1.071125 C 0.59125 -1.071125 1.071719 -0.590656 1.071719 -0.0008125 Z M 1.071719 -0.0008125 "
     transform="matrix(1, 0, 0, -1, 44.565, 35.632)"
     id="path8" />
  <path
     fill-rule="nonzero"
     fill="rgb(0%, 23.527527%, 39.99939%)"
     fill-opacity="1"
     stroke-width="0.3985"
     stroke-linecap="butt"
     stroke-linejoin="miter"
     stroke="rgb(0%, 23.527527%, 39.99939%)"
     stroke-opacity="1"
     stroke-miterlimit="10"
     d="M 1.070594 -0.0008125 C 1.070594 0.592938 0.594031 1.073406 0.00028125 1.073406 C -0.593469 1.073406 -1.073937 0.592938 -1.073937 -0.0008125 C -1.073937 -0.590656 -0.593469 -1.071125 0.00028125 -1.071125 C 0.594031 -1.071125 1.070594 -0.590656 1.070594 -0.0008125 Z M 1.070594 -0.0008125 "
     transform="matrix(1, 0, 0, -1, 58.738, 35.632)"
     id="path9" />
  <path
     fill-rule="nonzero"
     fill="rgb(0%, 23.527527%, 39.99939%)"
     fill-opacity="1"
     stroke-width="0.3985"
     stroke-linecap="butt"
     stroke-linejoin="miter"
     stroke="rgb(0%, 23.527527%, 39.99939%)"
     stroke-opacity="1"
     stroke-miterlimit="10"
     d="M 1.073375 -0.0008125 C 1.073375 0.592938 0.592906 1.073406 -0.00084375 1.073406 C -0.590688 1.073406 -1.071156 0.592938 -1.071156 -0.0008125 C -1.071156 -0.590656 -0.590688 -1.071125 -0.00084375 -1.071125 C 0.592906 -1.071125 1.073375 -0.590656 1.073375 -0.0008125 Z M 1.073375 -0.0008125 "
     transform="matrix(1, 0, 0, -1, 72.911, 35.632)"
     id="path10" />
  <path
     fill-rule="nonzero"
     fill="rgb(0%, 23.527527%, 39.99939%)"
     fill-opacity="1"
     stroke-width="0.3985"
     stroke-linecap="butt"
     stroke-linejoin="miter"
     stroke="rgb(0%, 23.527527%, 39.99939%)"
     stroke-opacity="1"
     stroke-miterlimit="10"
     d="M 1.07125 -0.0008125 C 1.07125 0.592938 0.590781 1.073406 0.0009375 1.073406 C -0.592813 1.073406 -1.073281 0.592938 -1.073281 -0.0008125 C -1.073281 -0.590656 -0.592813 -1.071125 0.0009375 -1.071125 C 0.590781 -1.071125 1.07125 -0.590656 1.07125 -0.0008125 Z M 1.07125 -0.0008125 "
     transform="matrix(1, 0, 0, -1, 87.085, 35.632)"
     id="path11" />
  <path
     fill="none"
     stroke-width="1.07237"
     stroke-linecap="butt"
     stroke-linejoin="miter"
     stroke="rgb(0%, 23.527527%, 39.99939%)"
     stroke-opacity="1"
     stroke-miterlimit="10"
     d="M -0.0019375 0.00021875 L 6.435563 6.433813 M -0.0019375 6.433813 L 6.435563 0.00021875 "
     transform="matrix(1, 0, 0, -1, 98.041, 24.676)"
     id="path12" />
  <path
     fill="none"
     stroke-width="1.07237"
     stroke-linecap="butt"
     stroke-linejoin="miter"
     stroke="rgb(0%, 23.527527%, 39.99939%)"
     stroke-opacity="1"
     stroke-miterlimit="10"
     d="M -0.00028125 0.00021875 L 6.433312 6.433813 M -0.00028125 6.433813 L 6.433312 0.00021875 "
     transform="matrix(1, 0, 0, -1, 126.387, 24.676)"
     id="path13" />
  <path
     fill-rule="nonzero"
     fill="rgb(0%, 23.527527%, 39.99939%)"
     fill-opacity="1"
     stroke-width="0.3985"
     stroke-linecap="butt"
     stroke-linejoin="miter"
     stroke="rgb(0%, 23.527527%, 39.99939%)"
     stroke-opacity="1"
     stroke-miterlimit="10"
     d="M 1.073563 -0.0019375 C 1.073563 0.591813 0.593094 1.072281 -0.00065625 1.072281 C -0.5905 1.072281 -1.070969 0.591813 -1.070969 -0.0019375 C -1.070969 -0.591781 -0.5905 -1.07225 -0.00065625 -1.07225 C 0.593094 -1.07225 1.073563 -0.591781 1.073563 -0.0019375 Z M 1.073563 -0.0019375 "
     transform="matrix(1, 0, 0, -1, 143.778, 21.459)"
     id="path14" />
  <path
     fill-rule="nonzero"
     fill="rgb(0%, 23.527527%, 39.99939%)"
     fill-opacity="1"
     stroke-width="0.3985"
     stroke-linecap="butt"
     stroke-linejoin="miter"
     stroke="rgb(0%, 23.527527%, 39.99939%)"
     stroke-opacity="1"
     stroke-miterlimit="10"
     d="M 1.072438 -0.0019375 C 1.072438 0.591813 0.591969 1.072281 -0.00178125 1.072281 C -0.591625 1.072281 -1.072094 0.591813 -1.072094 -0.0019375 C -1.072094 -0.591781 -0.591625 -1.07225 -0.00178125 -1.07225 C 0.591969 -1.07225 1.072438 -0.591781 1.072438 -0.0019375 Z M 1.072438 -0.0019375 "
     transform="matrix(1, 0, 0, -1, 157.951, 21.459)"
     id="path15" />
  <path
     fill-rule="nonzero"
     fill="rgb(0%, 23.527527%, 39.99939%)"
     fill-opacity="1"
     stroke-width="0.3985"
     stroke-linecap="butt"
     stroke-linejoin="miter"
     stroke="rgb(0%, 23.527527%, 39.99939%)"
     stroke-opacity="1"
     stroke-miterlimit="10"
     d="M 1.071313 -0.0019375 C 1.071313 0.591813 0.590844 1.072281 0.001 1.072281 C -0.59275 1.072281 -1.073219 0.591813 -1.073219 -0.0019375 C -1.073219 -0.591781 -0.59275 -1.07225 0.001 -1.07225 C 0.590844 -1.07225 1.071313 -0.591781 1.071313 -0.0019375 Z M 1.071313 -0.0019375 "
     transform="matrix(1, 0, 0, -1, 172.124, 21.459)"
     id="path16" />
  <path
     fill="none"
     stroke-width="1.07237"
     stroke-linecap="butt"
     stroke-linejoin="miter"
     stroke="rgb(0%, 23.527527%, 39.99939%)"
     stroke-opacity="1"
     stroke-miterlimit="10"
     d="M 0.00084375 -0.00090625 L 6.434437 6.432688 M 0.00084375 6.432688 L 6.434437 -0.00090625 "
     transform="matrix(1, 0, 0, -1, 112.214, 10.503)"
     id="path17" />
  <g
     fill="rgb(0%, 23.527527%, 39.99939%)"
     fill-opacity="1"
     id="g17">
    <use
       xlink:href="#glyph-0-0"
       x="6.641"
       y="53.016"
       id="use17" />
  </g>
  <g
     fill="rgb(0%, 23.527527%, 39.99939%)"
     fill-opacity="1"
     id="g18">
    <use
       xlink:href="#glyph-1-0"
       x="63.711"
       y="49.885"
       id="use18" />
  </g>
  <g
     fill="rgb(0%, 23.527527%, 39.99939%)"
     fill-opacity="1"
     id="g19">
    <use
       xlink:href="#glyph-1-1"
       x="67.365"
       y="48.132"
       id="use19" />
  </g>
</svg>
