<?xml version="1.0" encoding="utf-8" standalone="no"?>
<!DOCTYPE svg PUBLIC "-//W3C//DTD SVG 1.1//EN"
  "http://www.w3.org/Graphics/SVG/1.1/DTD/svg11.dtd">
<svg xmlns:xlink="http://www.w3.org/1999/xlink" width="648pt" height="288pt" viewBox="0 0 648 288" xmlns="http://www.w3.org/2000/svg" version="1.1">
 <metadata>
  <rdf:RDF xmlns:dc="http://purl.org/dc/elements/1.1/" xmlns:cc="http://creativecommons.org/ns#" xmlns:rdf="http://www.w3.org/1999/02/22-rdf-syntax-ns#">
   <cc:Work>
    <dc:type rdf:resource="http://purl.org/dc/dcmitype/StillImage"/>
    <dc:date>2026-03-21T21:43:49.235322</dc:date>
    <dc:format>image/svg+xml</dc:format>
    <dc:creator>
     <cc:Agent>
      <dc:title>Matplotlib v3.9.2, https://matplotlib.org/</dc:title>
     </cc:Agent>
    </dc:creator>
   </cc:Work>
  </rdf:RDF>
 </metadata>
 <defs>
  <style type="text/css">*{stroke-linejoin: round; stroke-linecap: butt}</style>
 </defs>
 <g id="figure_1">
  <g id="patch_1">
   <path d="M 0 288 
L 648 288 
L 648 0 
L 0 0 
z
" style="fill: #ffffff"/>
  </g>
  <g id="axes_1">
   <g id="patch_2">
    <path d="M 30.49 260.12 
L 513 260.12 
L 513 10.8 
L 30.49 10.8 
z
" style="fill: #ffffff"/>
   </g>
   <g id="matplotlib.axis_1">
    <g id="xtick_1">
     <g id="line2d_1">
      <defs>
       <path id="md6b45b7cae" d="M 0 0 
L 0 3.5 
" style="stroke: #000000; stroke-width: 0.8"/>
      </defs>
      <g>
       <use xlink:href="#md6b45b7cae" x="33.873239" y="260.12" style="stroke: #000000; stroke-width: 0.8"/>
      </g>
     </g>
     <g id="text_1">
      <!-- 0 -->
      <g transform="translate(30.691989 274.718437) scale(0.1 -0.1)">
       <defs>
        <path id="DejaVuSans-30" d="M 2034 4250 
Q 1547 4250 1301 3770 
Q 1056 3291 1056 2328 
Q 1056 1369 1301 889 
Q 1547 409 2034 409 
Q 2525 409 2770 889 
Q 3016 1369 3016 2328 
Q 3016 3291 2770 3770 
Q 2525 4250 2034 4250 
z
M 2034 4750 
Q 2819 4750 3233 4129 
Q 3647 3509 3647 2328 
Q 3647 1150 3233 529 
Q 2819 -91 2034 -91 
Q 1250 -91 836 529 
Q 422 1150 422 2328 
Q 422 3509 836 4129 
Q 1250 4750 2034 4750 
z
" transform="scale(0.015625)"/>
       </defs>
       <use xlink:href="#DejaVuSans-30"/>
      </g>
     </g>
    </g>
    <g id="xtick_2">
     <g id="line2d_2">
      <g>
       <use xlink:href="#md6b45b7cae" x="59.998639" y="260.12" style="stroke: #000000; stroke-width: 0.8"/>
      </g>
     </g>
     <g id="text_2">
      <!-- 1/4 -->
      <g transform="translate(51.951764 274.718437) scale(0.1 -0.1)">
       <defs>
        <path id="DejaVuSans-31" d="M 794 531 
L 1825 531 
L 1825 4091 
L 703 3866 
L 703 4441 
L 1819 4666 
L 2450 4666 
L 2450 531 
L 3481 531 
L 3481 0 
L 794 0 
L 794 531 
z
" transform="scale(0.015625)"/>
        <path id="DejaVuSans-2f" d="M 1625 4666 
L 2156 4666 
L 531 -594 
L 0 -594 
L 1625 4666 
z
" transform="scale(0.015625)"/>
        <path id="DejaVuSans-34" d="M 2419 4116 
L 825 1625 
L 2419 1625 
L 2419 4116 
z
M 2253 4666 
L 3047 4666 
L 3047 1625 
L 3713 1625 
L 3713 1100 
L 3047 1100 
L 3047 0 
L 2419 0 
L 2419 1100 
L 313 1100 
L 313 1709 
L 2253 4666 
z
" transform="scale(0.015625)"/>
       </defs>
       <use xlink:href="#DejaVuSans-31"/>
       <use xlink:href="#DejaVuSans-2f" x="63.623047"/>
       <use xlink:href="#DejaVuSans-34" x="97.314453"/>
      </g>
     </g>
    </g>
    <g id="xtick_3">
     <g id="line2d_3">
      <g>
       <use xlink:href="#md6b45b7cae" x="86.124038" y="260.12" style="stroke: #000000; stroke-width: 0.8"/>
      </g>
     </g>
     <g id="text_3">
      <!-- 1/2 -->
      <g transform="translate(78.077163 274.718437) scale(0.1 -0.1)">
       <defs>
        <path id="DejaVuSans-32" d="M 1228 531 
L 3431 531 
L 3431 0 
L 469 0 
L 469 531 
Q 828 903 1448 1529 
Q 2069 2156 2228 2338 
Q 2531 2678 2651 2914 
Q 2772 3150 2772 3378 
Q 2772 3750 2511 3984 
Q 2250 4219 1831 4219 
Q 1534 4219 1204 4116 
Q 875 4013 500 3803 
L 500 4441 
Q 881 4594 1212 4672 
Q 1544 4750 1819 4750 
Q 2544 4750 2975 4387 
Q 3406 4025 3406 3419 
Q 3406 3131 3298 2873 
Q 3191 2616 2906 2266 
Q 2828 2175 2409 1742 
Q 1991 1309 1228 531 
z
" transform="scale(0.015625)"/>
       </defs>
       <use xlink:href="#DejaVuSans-31"/>
       <use xlink:href="#DejaVuSans-2f" x="63.623047"/>
       <use xlink:href="#DejaVuSans-32" x="97.314453"/>
      </g>
     </g>
    </g>
    <g id="xtick_4">
     <g id="line2d_4">
      <g>
       <use xlink:href="#md6b45b7cae" x="112.249437" y="260.12" style="stroke: #000000; stroke-width: 0.8"/>
      </g>
     </g>
     <g id="text_4">
      <!-- 3/4 -->
      <g transform="translate(104.202562 274.718437) scale(0.1 -0.1)">
       <defs>
        <path id="DejaVuSans-33" d="M 2597 2516 
Q 3050 2419 3304 2112 
Q 3559 1806 3559 1356 
Q 3559 666 3084 287 
Q 2609 -91 1734 -91 
Q 1441 -91 1130 -33 
Q 819 25 488 141 
L 488 750 
Q 750 597 1062 519 
Q 1375 441 1716 441 
Q 2309 441 2620 675 
Q 2931 909 2931 1356 
Q 2931 1769 2642 2001 
Q 2353 2234 1838 2234 
L 1294 2234 
L 1294 2753 
L 1863 2753 
Q 2328 2753 2575 2939 
Q 2822 3125 2822 3475 
Q 2822 3834 2567 4026 
Q 2313 4219 1838 4219 
Q 1578 4219 1281 4162 
Q 984 4106 628 3988 
L 628 4550 
Q 988 4650 1302 4700 
Q 1616 4750 1894 4750 
Q 2613 4750 3031 4423 
Q 3450 4097 3450 3541 
Q 3450 3153 3228 2886 
Q 3006 2619 2597 2516 
z
" transform="scale(0.015625)"/>
       </defs>
       <use xlink:href="#DejaVuSans-33"/>
       <use xlink:href="#DejaVuSans-2f" x="63.623047"/>
       <use xlink:href="#DejaVuSans-34" x="97.314453"/>
      </g>
     </g>
    </g>
    <g id="xtick_5">
     <g id="line2d_5">
      <g>
       <use xlink:href="#md6b45b7cae" x="138.374836" y="260.12" style="stroke: #000000; stroke-width: 0.8"/>
      </g>
     </g>
     <g id="text_5">
      <!-- 1 -->
      <g transform="translate(135.193586 274.718437) scale(0.1 -0.1)">
       <use xlink:href="#DejaVuSans-31"/>
      </g>
     </g>
    </g>
    <g id="xtick_6">
     <g id="line2d_6">
      <g>
       <use xlink:href="#md6b45b7cae" x="164.500236" y="260.12" style="stroke: #000000; stroke-width: 0.8"/>
      </g>
     </g>
     <g id="text_6">
      <!-- 5/4 -->
      <g transform="translate(156.453361 274.718437) scale(0.1 -0.1)">
       <defs>
        <path id="DejaVuSans-35" d="M 691 4666 
L 3169 4666 
L 3169 4134 
L 1269 4134 
L 1269 2991 
Q 1406 3038 1543 3061 
Q 1681 3084 1819 3084 
Q 2600 3084 3056 2656 
Q 3513 2228 3513 1497 
Q 3513 744 3044 326 
Q 2575 -91 1722 -91 
Q 1428 -91 1123 -41 
Q 819 9 494 109 
L 494 744 
Q 775 591 1075 516 
Q 1375 441 1709 441 
Q 2250 441 2565 725 
Q 2881 1009 2881 1497 
Q 2881 1984 2565 2268 
Q 2250 2553 1709 2553 
Q 1456 2553 1204 2497 
Q 953 2441 691 2322 
L 691 4666 
z
" transform="scale(0.015625)"/>
       </defs>
       <use xlink:href="#DejaVuSans-35"/>
       <use xlink:href="#DejaVuSans-2f" x="63.623047"/>
       <use xlink:href="#DejaVuSans-34" x="97.314453"/>
      </g>
     </g>
    </g>
    <g id="xtick_7">
     <g id="line2d_7">
      <g>
       <use xlink:href="#md6b45b7cae" x="190.625635" y="260.12" style="stroke: #000000; stroke-width: 0.8"/>
      </g>
     </g>
     <g id="text_7">
      <!-- 3/2 -->
      <g transform="translate(182.57876 274.718437) scale(0.1 -0.1)">
       <use xlink:href="#DejaVuSans-33"/>
       <use xlink:href="#DejaVuSans-2f" x="63.623047"/>
       <use xlink:href="#DejaVuSans-32" x="97.314453"/>
      </g>
     </g>
    </g>
    <g id="xtick_8">
     <g id="line2d_8">
      <g>
       <use xlink:href="#md6b45b7cae" x="216.751034" y="260.12" style="stroke: #000000; stroke-width: 0.8"/>
      </g>
     </g>
     <g id="text_8">
      <!-- 7/4 -->
      <g transform="translate(208.704159 274.718437) scale(0.1 -0.1)">
       <defs>
        <path id="DejaVuSans-37" d="M 525 4666 
L 3525 4666 
L 3525 4397 
L 1831 0 
L 1172 0 
L 2766 4134 
L 525 4134 
L 525 4666 
z
" transform="scale(0.015625)"/>
       </defs>
       <use xlink:href="#DejaVuSans-37"/>
       <use xlink:href="#DejaVuSans-2f" x="63.623047"/>
       <use xlink:href="#DejaVuSans-34" x="97.314453"/>
      </g>
     </g>
    </g>
    <g id="xtick_9">
     <g id="line2d_9">
      <g>
       <use xlink:href="#md6b45b7cae" x="242.876434" y="260.12" style="stroke: #000000; stroke-width: 0.8"/>
      </g>
     </g>
     <g id="text_9">
      <!-- 2 -->
      <g transform="translate(239.695184 274.718437) scale(0.1 -0.1)">
       <use xlink:href="#DejaVuSans-32"/>
      </g>
     </g>
    </g>
    <g id="xtick_10">
     <g id="line2d_10">
      <g>
       <use xlink:href="#md6b45b7cae" x="269.001833" y="260.12" style="stroke: #000000; stroke-width: 0.8"/>
      </g>
     </g>
     <g id="text_10">
      <!-- 9/4 -->
      <g transform="translate(260.954958 274.718437) scale(0.1 -0.1)">
       <defs>
        <path id="DejaVuSans-39" d="M 703 97 
L 703 672 
Q 941 559 1184 500 
Q 1428 441 1663 441 
Q 2288 441 2617 861 
Q 2947 1281 2994 2138 
Q 2813 1869 2534 1725 
Q 2256 1581 1919 1581 
Q 1219 1581 811 2004 
Q 403 2428 403 3163 
Q 403 3881 828 4315 
Q 1253 4750 1959 4750 
Q 2769 4750 3195 4129 
Q 3622 3509 3622 2328 
Q 3622 1225 3098 567 
Q 2575 -91 1691 -91 
Q 1453 -91 1209 -44 
Q 966 3 703 97 
z
M 1959 2075 
Q 2384 2075 2632 2365 
Q 2881 2656 2881 3163 
Q 2881 3666 2632 3958 
Q 2384 4250 1959 4250 
Q 1534 4250 1286 3958 
Q 1038 3666 1038 3163 
Q 1038 2656 1286 2365 
Q 1534 2075 1959 2075 
z
" transform="scale(0.015625)"/>
       </defs>
       <use xlink:href="#DejaVuSans-39"/>
       <use xlink:href="#DejaVuSans-2f" x="63.623047"/>
       <use xlink:href="#DejaVuSans-34" x="97.314453"/>
      </g>
     </g>
    </g>
    <g id="xtick_11">
     <g id="line2d_11">
      <g>
       <use xlink:href="#md6b45b7cae" x="295.127232" y="260.12" style="stroke: #000000; stroke-width: 0.8"/>
      </g>
     </g>
     <g id="text_11">
      <!-- 5/2 -->
      <g transform="translate(287.080357 274.718437) scale(0.1 -0.1)">
       <use xlink:href="#DejaVuSans-35"/>
       <use xlink:href="#DejaVuSans-2f" x="63.623047"/>
       <use xlink:href="#DejaVuSans-32" x="97.314453"/>
      </g>
     </g>
    </g>
    <g id="xtick_12">
     <g id="line2d_12">
      <g>
       <use xlink:href="#md6b45b7cae" x="321.252632" y="260.12" style="stroke: #000000; stroke-width: 0.8"/>
      </g>
     </g>
     <g id="text_12">
      <!-- 11/4 -->
      <g transform="translate(310.024507 274.718437) scale(0.1 -0.1)">
       <use xlink:href="#DejaVuSans-31"/>
       <use xlink:href="#DejaVuSans-31" x="63.623047"/>
       <use xlink:href="#DejaVuSans-2f" x="127.246094"/>
       <use xlink:href="#DejaVuSans-34" x="160.9375"/>
      </g>
     </g>
    </g>
    <g id="xtick_13">
     <g id="line2d_13">
      <g>
       <use xlink:href="#md6b45b7cae" x="347.378031" y="260.12" style="stroke: #000000; stroke-width: 0.8"/>
      </g>
     </g>
     <g id="text_13">
      <!-- 3 -->
      <g transform="translate(344.196781 274.718437) scale(0.1 -0.1)">
       <use xlink:href="#DejaVuSans-33"/>
      </g>
     </g>
    </g>
    <g id="xtick_14">
     <g id="line2d_14">
      <g>
       <use xlink:href="#md6b45b7cae" x="373.50343" y="260.12" style="stroke: #000000; stroke-width: 0.8"/>
      </g>
     </g>
     <g id="text_14">
      <!-- 13/4 -->
      <g transform="translate(362.275305 274.718437) scale(0.1 -0.1)">
       <use xlink:href="#DejaVuSans-31"/>
       <use xlink:href="#DejaVuSans-33" x="63.623047"/>
       <use xlink:href="#DejaVuSans-2f" x="127.246094"/>
       <use xlink:href="#DejaVuSans-34" x="160.9375"/>
      </g>
     </g>
    </g>
    <g id="xtick_15">
     <g id="line2d_15">
      <g>
       <use xlink:href="#md6b45b7cae" x="399.62883" y="260.12" style="stroke: #000000; stroke-width: 0.8"/>
      </g>
     </g>
     <g id="text_15">
      <!-- 7/2 -->
      <g transform="translate(391.581955 274.718437) scale(0.1 -0.1)">
       <use xlink:href="#DejaVuSans-37"/>
       <use xlink:href="#DejaVuSans-2f" x="63.623047"/>
       <use xlink:href="#DejaVuSans-32" x="97.314453"/>
      </g>
     </g>
    </g>
    <g id="xtick_16">
     <g id="line2d_16">
      <g>
       <use xlink:href="#md6b45b7cae" x="425.754229" y="260.12" style="stroke: #000000; stroke-width: 0.8"/>
      </g>
     </g>
     <g id="text_16">
      <!-- 15/4 -->
      <g transform="translate(414.526104 274.718437) scale(0.1 -0.1)">
       <use xlink:href="#DejaVuSans-31"/>
       <use xlink:href="#DejaVuSans-35" x="63.623047"/>
       <use xlink:href="#DejaVuSans-2f" x="127.246094"/>
       <use xlink:href="#DejaVuSans-34" x="160.9375"/>
      </g>
     </g>
    </g>
    <g id="xtick_17">
     <g id="line2d_17">
      <g>
       <use xlink:href="#md6b45b7cae" x="451.879628" y="260.12" style="stroke: #000000; stroke-width: 0.8"/>
      </g>
     </g>
     <g id="text_17">
      <!-- 4 -->
      <g transform="translate(448.698378 274.718437) scale(0.1 -0.1)">
       <use xlink:href="#DejaVuSans-34"/>
      </g>
     </g>
    </g>
    <g id="xtick_18">
     <g id="line2d_18">
      <g>
       <use xlink:href="#md6b45b7cae" x="478.005028" y="260.12" style="stroke: #000000; stroke-width: 0.8"/>
      </g>
     </g>
     <g id="text_18">
      <!-- 17/4 -->
      <g transform="translate(466.776903 274.718437) scale(0.1 -0.1)">
       <use xlink:href="#DejaVuSans-31"/>
       <use xlink:href="#DejaVuSans-37" x="63.623047"/>
       <use xlink:href="#DejaVuSans-2f" x="127.246094"/>
       <use xlink:href="#DejaVuSans-34" x="160.9375"/>
      </g>
     </g>
    </g>
   </g>
   <g id="matplotlib.axis_2">
    <g id="ytick_1">
     <g id="line2d_19">
      <defs>
       <path id="m2a444af1a8" d="M 0 0 
L -3.5 0 
" style="stroke: #000000; stroke-width: 0.8"/>
      </defs>
      <g>
       <use xlink:href="#m2a444af1a8" x="30.49" y="250.1472" style="stroke: #000000; stroke-width: 0.8"/>
      </g>
     </g>
     <g id="text_19">
      <!-- C3 -->
      <g transform="translate(10.144688 253.946419) scale(0.1 -0.1)">
       <defs>
        <path id="DejaVuSans-43" d="M 4122 4306 
L 4122 3641 
Q 3803 3938 3442 4084 
Q 3081 4231 2675 4231 
Q 1875 4231 1450 3742 
Q 1025 3253 1025 2328 
Q 1025 1406 1450 917 
Q 1875 428 2675 428 
Q 3081 428 3442 575 
Q 3803 722 4122 1019 
L 4122 359 
Q 3791 134 3420 21 
Q 3050 -91 2638 -91 
Q 1578 -91 968 557 
Q 359 1206 359 2328 
Q 359 3453 968 4101 
Q 1578 4750 2638 4750 
Q 3056 4750 3426 4639 
Q 3797 4528 4122 4306 
z
" transform="scale(0.015625)"/>
       </defs>
       <use xlink:href="#DejaVuSans-43"/>
       <use xlink:href="#DejaVuSans-33" x="69.824219"/>
      </g>
     </g>
    </g>
    <g id="ytick_2">
     <g id="line2d_20">
      <g>
       <use xlink:href="#m2a444af1a8" x="30.49" y="210.256" style="stroke: #000000; stroke-width: 0.8"/>
      </g>
     </g>
     <g id="text_20">
      <!-- E3 -->
      <g transform="translate(10.80875 214.055219) scale(0.1 -0.1)">
       <defs>
        <path id="DejaVuSans-45" d="M 628 4666 
L 3578 4666 
L 3578 4134 
L 1259 4134 
L 1259 2753 
L 3481 2753 
L 3481 2222 
L 1259 2222 
L 1259 531 
L 3634 531 
L 3634 0 
L 628 0 
L 628 4666 
z
" transform="scale(0.015625)"/>
       </defs>
       <use xlink:href="#DejaVuSans-45"/>
       <use xlink:href="#DejaVuSans-33" x="63.183594"/>
      </g>
     </g>
    </g>
    <g id="ytick_3">
     <g id="line2d_21">
      <g>
       <use xlink:href="#m2a444af1a8" x="30.49" y="170.3648" style="stroke: #000000; stroke-width: 0.8"/>
      </g>
     </g>
     <g id="text_21">
      <!-- Ab3 -->
      <g transform="translate(3.938437 174.164019) scale(0.1 -0.1)">
       <defs>
        <path id="DejaVuSans-41" d="M 2188 4044 
L 1331 1722 
L 3047 1722 
L 2188 4044 
z
M 1831 4666 
L 2547 4666 
L 4325 0 
L 3669 0 
L 3244 1197 
L 1141 1197 
L 716 0 
L 50 0 
L 1831 4666 
z
" transform="scale(0.015625)"/>
        <path id="DejaVuSans-62" d="M 3116 1747 
Q 3116 2381 2855 2742 
Q 2594 3103 2138 3103 
Q 1681 3103 1420 2742 
Q 1159 2381 1159 1747 
Q 1159 1113 1420 752 
Q 1681 391 2138 391 
Q 2594 391 2855 752 
Q 3116 1113 3116 1747 
z
M 1159 2969 
Q 1341 3281 1617 3432 
Q 1894 3584 2278 3584 
Q 2916 3584 3314 3078 
Q 3713 2572 3713 1747 
Q 3713 922 3314 415 
Q 2916 -91 2278 -91 
Q 1894 -91 1617 61 
Q 1341 213 1159 525 
L 1159 0 
L 581 0 
L 581 4863 
L 1159 4863 
L 1159 2969 
z
" transform="scale(0.015625)"/>
       </defs>
       <use xlink:href="#DejaVuSans-41"/>
       <use xlink:href="#DejaVuSans-62" x="68.408203"/>
       <use xlink:href="#DejaVuSans-33" x="131.884766"/>
      </g>
     </g>
    </g>
    <g id="ytick_4">
     <g id="line2d_22">
      <g>
       <use xlink:href="#m2a444af1a8" x="30.49" y="130.4736" style="stroke: #000000; stroke-width: 0.8"/>
      </g>
     </g>
     <g id="text_22">
      <!-- C4 -->
      <g transform="translate(10.144688 134.272819) scale(0.1 -0.1)">
       <use xlink:href="#DejaVuSans-43"/>
       <use xlink:href="#DejaVuSans-34" x="69.824219"/>
      </g>
     </g>
    </g>
    <g id="ytick_5">
     <g id="line2d_23">
      <g>
       <use xlink:href="#m2a444af1a8" x="30.49" y="90.5824" style="stroke: #000000; stroke-width: 0.8"/>
      </g>
     </g>
     <g id="text_23">
      <!-- E4 -->
      <g transform="translate(10.80875 94.381619) scale(0.1 -0.1)">
       <use xlink:href="#DejaVuSans-45"/>
       <use xlink:href="#DejaVuSans-34" x="63.183594"/>
      </g>
     </g>
    </g>
    <g id="ytick_6">
     <g id="line2d_24">
      <g>
       <use xlink:href="#m2a444af1a8" x="30.49" y="50.6912" style="stroke: #000000; stroke-width: 0.8"/>
      </g>
     </g>
     <g id="text_24">
      <!-- Ab4 -->
      <g transform="translate(3.938437 54.490419) scale(0.1 -0.1)">
       <use xlink:href="#DejaVuSans-41"/>
       <use xlink:href="#DejaVuSans-62" x="68.408203"/>
       <use xlink:href="#DejaVuSans-34" x="131.884766"/>
      </g>
     </g>
    </g>
   </g>
   <g id="LineCollection_1">
    <path d="M 59.998639 40.7184 
L 128.577812 40.7184 
" clip-path="url(#pd20f855785)" style="fill: none; stroke: #1f77b4; stroke-width: 5"/>
   </g>
   <g id="LineCollection_2">
    <path d="M 112.249437 180.3376 
L 187.35996 180.3376 
" clip-path="url(#pd20f855785)" style="fill: none; stroke: #1f77b4; stroke-width: 5"/>
   </g>
   <g id="LineCollection_3">
    <path d="M 118.780787 30.7456 
L 138.374836 30.7456 
" clip-path="url(#pd20f855785)" style="fill: none; stroke: #1f77b4; stroke-width: 5"/>
   </g>
   <g id="LineCollection_4">
    <path d="M 252.673458 190.3104 
L 282.064533 190.3104 
" clip-path="url(#pd20f855785)" style="fill: none; stroke: #1f77b4; stroke-width: 5"/>
   </g>
   <g id="LineCollection_5">
    <path d="M 252.673458 80.6096 
L 344.112356 80.6096 
" clip-path="url(#pd20f855785)" style="fill: none; stroke: #1f77b4; stroke-width: 5"/>
   </g>
   <g id="LineCollection_6">
    <path d="M 56.732964 220.2288 
L 76.327013 220.2288 
" clip-path="url(#pd20f855785)" style="fill: none; stroke: #d62728; stroke-width: 5"/>
   </g>
   <g id="LineCollection_7">
    <path d="M 125.312137 110.528 
L 157.968886 110.528 
" clip-path="url(#pd20f855785)" style="fill: none; stroke: #d62728; stroke-width: 5"/>
   </g>
   <g id="LineCollection_8">
    <path d="M 135.109162 230.2016 
L 216.751034 230.2016 
" clip-path="url(#pd20f855785)" style="fill: none; stroke: #d62728; stroke-width: 5"/>
   </g>
   <g id="LineCollection_9">
    <path d="M 255.939133 240.1744 
L 272.267508 240.1744 
" clip-path="url(#pd20f855785)" style="fill: none; stroke: #d62728; stroke-width: 5"/>
   </g>
   <g id="LineCollection_10">
    <path d="M 278.798858 170.3648 
L 357.175056 170.3648 
" clip-path="url(#pd20f855785)" style="fill: none; stroke: #d62728; stroke-width: 5"/>
   </g>
   <g id="LineCollection_11">
    <path d="M 295.127232 20.7728 
L 340.846681 20.7728 
" clip-path="url(#pd20f855785)" style="fill: none; stroke: #d62728; stroke-width: 5"/>
   </g>
   <g id="LineCollection_12">
    <path d="M 340.846681 220.2288 
L 415.957204 220.2288 
" clip-path="url(#pd20f855785)" style="fill: none; stroke: #d62728; stroke-width: 5"/>
   </g>
   <g id="LineCollection_13">
    <path d="M 350.643706 120.5008 
L 409.425854 120.5008 
" clip-path="url(#pd20f855785)" style="fill: none; stroke: #d62728; stroke-width: 5"/>
   </g>
   <g id="LineCollection_14">
    <path d="M 386.56613 70.6368 
L 458.410978 70.6368 
" clip-path="url(#pd20f855785)" style="fill: none; stroke: #d62728; stroke-width: 5"/>
   </g>
   <g id="LineCollection_15">
    <path d="M 115.515112 180.3376 
L 197.156985 180.3376 
" clip-path="url(#pd20f855785)" style="fill: none; stroke: #f7b6d2; stroke-width: 5"/>
   </g>
   <g id="LineCollection_16">
    <path d="M 226.548059 180.3376 
L 233.079409 180.3376 
" clip-path="url(#pd20f855785)" style="fill: none; stroke: #f7b6d2; stroke-width: 5"/>
   </g>
   <g id="LineCollection_17">
    <path d="M 236.345084 140.4464 
L 272.267508 140.4464 
" clip-path="url(#pd20f855785)" style="fill: none; stroke: #f7b6d2; stroke-width: 5"/>
   </g>
   <g id="LineCollection_18">
    <path d="M 252.673458 240.1744 
L 262.470483 240.1744 
" clip-path="url(#pd20f855785)" style="fill: none; stroke: #f7b6d2; stroke-width: 5"/>
   </g>
   <g id="LineCollection_19">
    <path d="M 265.736158 70.6368 
L 269.001833 70.6368 
" clip-path="url(#pd20f855785)" style="fill: none; stroke: #f7b6d2; stroke-width: 5"/>
   </g>
   <g id="LineCollection_20">
    <path d="M 363.706406 220.2288 
L 461.676653 220.2288 
" clip-path="url(#pd20f855785)" style="fill: none; stroke: #f7b6d2; stroke-width: 5"/>
   </g>
   <g id="LineCollection_21">
    <path d="M 383.300455 150.4192 
L 432.285579 150.4192 
" clip-path="url(#pd20f855785)" style="fill: none; stroke: #f7b6d2; stroke-width: 5"/>
   </g>
   <g id="LineCollection_22">
    <path d="M 53.467289 30.7456 
L 112.249437 30.7456 
" clip-path="url(#pd20f855785)" style="fill: none; stroke: #9edae5; stroke-width: 5"/>
   </g>
   <g id="LineCollection_23">
    <path d="M 89.389713 190.3104 
L 99.186738 190.3104 
" clip-path="url(#pd20f855785)" style="fill: none; stroke: #9edae5; stroke-width: 5"/>
   </g>
   <g id="LineCollection_24">
    <path d="M 105.718087 110.528 
L 197.156985 110.528 
" clip-path="url(#pd20f855785)" style="fill: none; stroke: #9edae5; stroke-width: 5"/>
   </g>
   <g id="LineCollection_25">
    <path d="M 161.234561 250.1472 
L 206.95401 250.1472 
" clip-path="url(#pd20f855785)" style="fill: none; stroke: #9edae5; stroke-width: 5"/>
   </g>
   <g id="LineCollection_26">
    <path d="M 220.016709 130.4736 
L 249.407784 130.4736 
" clip-path="url(#pd20f855785)" style="fill: none; stroke: #9edae5; stroke-width: 5"/>
   </g>
   <g id="LineCollection_27">
    <path d="M 255.939133 40.7184 
L 272.267508 40.7184 
" clip-path="url(#pd20f855785)" style="fill: none; stroke: #9edae5; stroke-width: 5"/>
   </g>
   <g id="LineCollection_28">
    <path d="M 275.533183 20.7728 
L 295.127232 20.7728 
" clip-path="url(#pd20f855785)" style="fill: none; stroke: #9edae5; stroke-width: 5"/>
   </g>
   <g id="LineCollection_29">
    <path d="M 304.924257 20.7728 
L 317.986957 20.7728 
" clip-path="url(#pd20f855785)" style="fill: none; stroke: #9edae5; stroke-width: 5"/>
   </g>
   <g id="LineCollection_30">
    <path d="M 334.315331 210.256 
L 383.300455 210.256 
" clip-path="url(#pd20f855785)" style="fill: none; stroke: #9edae5; stroke-width: 5"/>
   </g>
   <g id="LineCollection_31">
    <path d="M 412.691529 120.5008 
L 491.067727 120.5008 
" clip-path="url(#pd20f855785)" style="fill: none; stroke: #9edae5; stroke-width: 5"/>
   </g>
   <g id="LineCollection_32">
    <path d="M 445.348278 200.2832 
L 464.942328 200.2832 
" clip-path="url(#pd20f855785)" style="fill: none; stroke: #9edae5; stroke-width: 5"/>
   </g>
   <g id="LineCollection_33">
    <path d="M 58.953623 40.7184 
L 61.043655 40.7184 
" clip-path="url(#pd20f855785)" style="fill: none; stroke: #000000; stroke-width: 10"/>
   </g>
   <g id="LineCollection_34">
    <path d="M 111.204421 180.3376 
L 113.294453 180.3376 
" clip-path="url(#pd20f855785)" style="fill: none; stroke: #000000; stroke-width: 10"/>
   </g>
   <g id="LineCollection_35">
    <path d="M 117.735771 30.7456 
L 119.825803 30.7456 
" clip-path="url(#pd20f855785)" style="fill: none; stroke: #000000; stroke-width: 10"/>
   </g>
   <g id="LineCollection_36">
    <path d="M 251.628443 190.3104 
L 253.718474 190.3104 
" clip-path="url(#pd20f855785)" style="fill: none; stroke: #000000; stroke-width: 10"/>
   </g>
   <g id="LineCollection_37">
    <path d="M 251.628443 80.6096 
L 253.718474 80.6096 
" clip-path="url(#pd20f855785)" style="fill: none; stroke: #000000; stroke-width: 10"/>
   </g>
   <g id="LineCollection_38">
    <path d="M 55.687948 220.2288 
L 57.77798 220.2288 
" clip-path="url(#pd20f855785)" style="fill: none; stroke: #000000; stroke-width: 10"/>
   </g>
   <g id="LineCollection_39">
    <path d="M 124.267121 110.528 
L 126.357153 110.528 
" clip-path="url(#pd20f855785)" style="fill: none; stroke: #000000; stroke-width: 10"/>
   </g>
   <g id="LineCollection_40">
    <path d="M 134.064146 230.2016 
L 136.154178 230.2016 
" clip-path="url(#pd20f855785)" style="fill: none; stroke: #000000; stroke-width: 10"/>
   </g>
   <g id="LineCollection_41">
    <path d="M 254.894117 240.1744 
L 256.984149 240.1744 
" clip-path="url(#pd20f855785)" style="fill: none; stroke: #000000; stroke-width: 10"/>
   </g>
   <g id="LineCollection_42">
    <path d="M 277.753842 170.3648 
L 279.843874 170.3648 
" clip-path="url(#pd20f855785)" style="fill: none; stroke: #000000; stroke-width: 10"/>
   </g>
   <g id="LineCollection_43">
    <path d="M 294.082216 20.7728 
L 296.172248 20.7728 
" clip-path="url(#pd20f855785)" style="fill: none; stroke: #000000; stroke-width: 10"/>
   </g>
   <g id="LineCollection_44">
    <path d="M 339.801665 220.2288 
L 341.891697 220.2288 
" clip-path="url(#pd20f855785)" style="fill: none; stroke: #000000; stroke-width: 10"/>
   </g>
   <g id="LineCollection_45">
    <path d="M 349.59869 120.5008 
L 351.688722 120.5008 
" clip-path="url(#pd20f855785)" style="fill: none; stroke: #000000; stroke-width: 10"/>
   </g>
   <g id="LineCollection_46">
    <path d="M 385.521114 70.6368 
L 387.611146 70.6368 
" clip-path="url(#pd20f855785)" style="fill: none; stroke: #000000; stroke-width: 10"/>
   </g>
   <g id="LineCollection_47">
    <path d="M 114.470096 180.3376 
L 116.560128 180.3376 
" clip-path="url(#pd20f855785)" style="fill: none; stroke: #000000; stroke-width: 10"/>
   </g>
   <g id="LineCollection_48">
    <path d="M 225.503043 180.3376 
L 227.593075 180.3376 
" clip-path="url(#pd20f855785)" style="fill: none; stroke: #000000; stroke-width: 10"/>
   </g>
   <g id="LineCollection_49">
    <path d="M 235.300068 140.4464 
L 237.3901 140.4464 
" clip-path="url(#pd20f855785)" style="fill: none; stroke: #000000; stroke-width: 10"/>
   </g>
   <g id="LineCollection_50">
    <path d="M 251.628443 240.1744 
L 253.718474 240.1744 
" clip-path="url(#pd20f855785)" style="fill: none; stroke: #000000; stroke-width: 10"/>
   </g>
   <g id="LineCollection_51">
    <path d="M 264.691142 70.6368 
L 266.781174 70.6368 
" clip-path="url(#pd20f855785)" style="fill: none; stroke: #000000; stroke-width: 10"/>
   </g>
   <g id="LineCollection_52">
    <path d="M 362.66139 220.2288 
L 364.751422 220.2288 
" clip-path="url(#pd20f855785)" style="fill: none; stroke: #000000; stroke-width: 10"/>
   </g>
   <g id="LineCollection_53">
    <path d="M 382.255439 150.4192 
L 384.345471 150.4192 
" clip-path="url(#pd20f855785)" style="fill: none; stroke: #000000; stroke-width: 10"/>
   </g>
   <g id="LineCollection_54">
    <path d="M 52.422273 30.7456 
L 54.512305 30.7456 
" clip-path="url(#pd20f855785)" style="fill: none; stroke: #000000; stroke-width: 10"/>
   </g>
   <g id="LineCollection_55">
    <path d="M 88.344697 190.3104 
L 90.434729 190.3104 
" clip-path="url(#pd20f855785)" style="fill: none; stroke: #000000; stroke-width: 10"/>
   </g>
   <g id="LineCollection_56">
    <path d="M 104.673071 110.528 
L 106.763103 110.528 
" clip-path="url(#pd20f855785)" style="fill: none; stroke: #000000; stroke-width: 10"/>
   </g>
   <g id="LineCollection_57">
    <path d="M 160.189545 250.1472 
L 162.279577 250.1472 
" clip-path="url(#pd20f855785)" style="fill: none; stroke: #000000; stroke-width: 10"/>
   </g>
   <g id="LineCollection_58">
    <path d="M 218.971693 130.4736 
L 221.061725 130.4736 
" clip-path="url(#pd20f855785)" style="fill: none; stroke: #000000; stroke-width: 10"/>
   </g>
   <g id="LineCollection_59">
    <path d="M 254.894117 40.7184 
L 256.984149 40.7184 
" clip-path="url(#pd20f855785)" style="fill: none; stroke: #000000; stroke-width: 10"/>
   </g>
   <g id="LineCollection_60">
    <path d="M 274.488167 20.7728 
L 276.578199 20.7728 
" clip-path="url(#pd20f855785)" style="fill: none; stroke: #000000; stroke-width: 10"/>
   </g>
   <g id="LineCollection_61">
    <path d="M 303.879241 20.7728 
L 305.969273 20.7728 
" clip-path="url(#pd20f855785)" style="fill: none; stroke: #000000; stroke-width: 10"/>
   </g>
   <g id="LineCollection_62">
    <path d="M 333.270315 210.256 
L 335.360347 210.256 
" clip-path="url(#pd20f855785)" style="fill: none; stroke: #000000; stroke-width: 10"/>
   </g>
   <g id="LineCollection_63">
    <path d="M 411.646513 120.5008 
L 413.736545 120.5008 
" clip-path="url(#pd20f855785)" style="fill: none; stroke: #000000; stroke-width: 10"/>
   </g>
   <g id="LineCollection_64">
    <path d="M 444.303262 200.2832 
L 446.393294 200.2832 
" clip-path="url(#pd20f855785)" style="fill: none; stroke: #000000; stroke-width: 10"/>
   </g>
   <g id="patch_3">
    <path d="M 30.49 260.12 
L 30.49 10.8 
" style="fill: none; stroke: #000000; stroke-width: 0.8; stroke-linejoin: miter; stroke-linecap: square"/>
   </g>
   <g id="patch_4">
    <path d="M 513 260.12 
L 513 10.8 
" style="fill: none; stroke: #000000; stroke-width: 0.8; stroke-linejoin: miter; stroke-linecap: square"/>
   </g>
   <g id="patch_5">
    <path d="M 30.49 260.12 
L 513 260.12 
" style="fill: none; stroke: #000000; stroke-width: 0.8; stroke-linejoin: miter; stroke-linecap: square"/>
   </g>
   <g id="patch_6">
    <path d="M 30.49 10.8 
L 513 10.8 
" style="fill: none; stroke: #000000; stroke-width: 0.8; stroke-linejoin: miter; stroke-linecap: square"/>
   </g>
   <g id="legend_1">
    <g id="patch_7">
     <path d="M 519.4911 62.206512 
L 634.631223 62.206512 
Q 636.297223 62.206512 636.297223 60.540512 
L 636.297223 12.466 
Q 636.297223 10.8 634.631223 10.8 
L 519.4911 10.8 
Q 517.8251 10.8 517.8251 12.466 
L 517.8251 60.540512 
Q 517.8251 62.206512 519.4911 62.206512 
z
" style="fill: #ffffff; opacity: 0.8; stroke: #cccccc; stroke-linejoin: miter"/>
    </g>
    <g id="patch_8">
     <path d="M 521.1571 20.461498 
L 537.8171 20.461498 
L 537.8171 14.630498 
L 521.1571 14.630498 
z
" style="fill: #1f77b4; stroke: #1f77b4; stroke-linejoin: miter"/>
    </g>
    <g id="text_25">
     <!-- Acoustic Grand Piano -->
     <g transform="translate(544.4811 20.461498) scale(0.0833 -0.0833)">
      <defs>
       <path id="DejaVuSans-63" d="M 3122 3366 
L 3122 2828 
Q 2878 2963 2633 3030 
Q 2388 3097 2138 3097 
Q 1578 3097 1268 2742 
Q 959 2388 959 1747 
Q 959 1106 1268 751 
Q 1578 397 2138 397 
Q 2388 397 2633 464 
Q 2878 531 3122 666 
L 3122 134 
Q 2881 22 2623 -34 
Q 2366 -91 2075 -91 
Q 1284 -91 818 406 
Q 353 903 353 1747 
Q 353 2603 823 3093 
Q 1294 3584 2113 3584 
Q 2378 3584 2631 3529 
Q 2884 3475 3122 3366 
z
" transform="scale(0.015625)"/>
       <path id="DejaVuSans-6f" d="M 1959 3097 
Q 1497 3097 1228 2736 
Q 959 2375 959 1747 
Q 959 1119 1226 758 
Q 1494 397 1959 397 
Q 2419 397 2687 759 
Q 2956 1122 2956 1747 
Q 2956 2369 2687 2733 
Q 2419 3097 1959 3097 
z
M 1959 3584 
Q 2709 3584 3137 3096 
Q 3566 2609 3566 1747 
Q 3566 888 3137 398 
Q 2709 -91 1959 -91 
Q 1206 -91 779 398 
Q 353 888 353 1747 
Q 353 2609 779 3096 
Q 1206 3584 1959 3584 
z
" transform="scale(0.015625)"/>
       <path id="DejaVuSans-75" d="M 544 1381 
L 544 3500 
L 1119 3500 
L 1119 1403 
Q 1119 906 1312 657 
Q 1506 409 1894 409 
Q 2359 409 2629 706 
Q 2900 1003 2900 1516 
L 2900 3500 
L 3475 3500 
L 3475 0 
L 2900 0 
L 2900 538 
Q 2691 219 2414 64 
Q 2138 -91 1772 -91 
Q 1169 -91 856 284 
Q 544 659 544 1381 
z
M 1991 3584 
L 1991 3584 
z
" transform="scale(0.015625)"/>
       <path id="DejaVuSans-73" d="M 2834 3397 
L 2834 2853 
Q 2591 2978 2328 3040 
Q 2066 3103 1784 3103 
Q 1356 3103 1142 2972 
Q 928 2841 928 2578 
Q 928 2378 1081 2264 
Q 1234 2150 1697 2047 
L 1894 2003 
Q 2506 1872 2764 1633 
Q 3022 1394 3022 966 
Q 3022 478 2636 193 
Q 2250 -91 1575 -91 
Q 1294 -91 989 -36 
Q 684 19 347 128 
L 347 722 
Q 666 556 975 473 
Q 1284 391 1588 391 
Q 1994 391 2212 530 
Q 2431 669 2431 922 
Q 2431 1156 2273 1281 
Q 2116 1406 1581 1522 
L 1381 1569 
Q 847 1681 609 1914 
Q 372 2147 372 2553 
Q 372 3047 722 3315 
Q 1072 3584 1716 3584 
Q 2034 3584 2315 3537 
Q 2597 3491 2834 3397 
z
" transform="scale(0.015625)"/>
       <path id="DejaVuSans-74" d="M 1172 4494 
L 1172 3500 
L 2356 3500 
L 2356 3053 
L 1172 3053 
L 1172 1153 
Q 1172 725 1289 603 
Q 1406 481 1766 481 
L 2356 481 
L 2356 0 
L 1766 0 
Q 1100 0 847 248 
Q 594 497 594 1153 
L 594 3053 
L 172 3053 
L 172 3500 
L 594 3500 
L 594 4494 
L 1172 4494 
z
" transform="scale(0.015625)"/>
       <path id="DejaVuSans-69" d="M 603 3500 
L 1178 3500 
L 1178 0 
L 603 0 
L 603 3500 
z
M 603 4863 
L 1178 4863 
L 1178 4134 
L 603 4134 
L 603 4863 
z
" transform="scale(0.015625)"/>
       <path id="DejaVuSans-20" transform="scale(0.015625)"/>
       <path id="DejaVuSans-47" d="M 3809 666 
L 3809 1919 
L 2778 1919 
L 2778 2438 
L 4434 2438 
L 4434 434 
Q 4069 175 3628 42 
Q 3188 -91 2688 -91 
Q 1594 -91 976 548 
Q 359 1188 359 2328 
Q 359 3472 976 4111 
Q 1594 4750 2688 4750 
Q 3144 4750 3555 4637 
Q 3966 4525 4313 4306 
L 4313 3634 
Q 3963 3931 3569 4081 
Q 3175 4231 2741 4231 
Q 1884 4231 1454 3753 
Q 1025 3275 1025 2328 
Q 1025 1384 1454 906 
Q 1884 428 2741 428 
Q 3075 428 3337 486 
Q 3600 544 3809 666 
z
" transform="scale(0.015625)"/>
       <path id="DejaVuSans-72" d="M 2631 2963 
Q 2534 3019 2420 3045 
Q 2306 3072 2169 3072 
Q 1681 3072 1420 2755 
Q 1159 2438 1159 1844 
L 1159 0 
L 581 0 
L 581 3500 
L 1159 3500 
L 1159 2956 
Q 1341 3275 1631 3429 
Q 1922 3584 2338 3584 
Q 2397 3584 2469 3576 
Q 2541 3569 2628 3553 
L 2631 2963 
z
" transform="scale(0.015625)"/>
       <path id="DejaVuSans-61" d="M 2194 1759 
Q 1497 1759 1228 1600 
Q 959 1441 959 1056 
Q 959 750 1161 570 
Q 1363 391 1709 391 
Q 2188 391 2477 730 
Q 2766 1069 2766 1631 
L 2766 1759 
L 2194 1759 
z
M 3341 1997 
L 3341 0 
L 2766 0 
L 2766 531 
Q 2569 213 2275 61 
Q 1981 -91 1556 -91 
Q 1019 -91 701 211 
Q 384 513 384 1019 
Q 384 1609 779 1909 
Q 1175 2209 1959 2209 
L 2766 2209 
L 2766 2266 
Q 2766 2663 2505 2880 
Q 2244 3097 1772 3097 
Q 1472 3097 1187 3025 
Q 903 2953 641 2809 
L 641 3341 
Q 956 3463 1253 3523 
Q 1550 3584 1831 3584 
Q 2591 3584 2966 3190 
Q 3341 2797 3341 1997 
z
" transform="scale(0.015625)"/>
       <path id="DejaVuSans-6e" d="M 3513 2113 
L 3513 0 
L 2938 0 
L 2938 2094 
Q 2938 2591 2744 2837 
Q 2550 3084 2163 3084 
Q 1697 3084 1428 2787 
Q 1159 2491 1159 1978 
L 1159 0 
L 581 0 
L 581 3500 
L 1159 3500 
L 1159 2956 
Q 1366 3272 1645 3428 
Q 1925 3584 2291 3584 
Q 2894 3584 3203 3211 
Q 3513 2838 3513 2113 
z
" transform="scale(0.015625)"/>
       <path id="DejaVuSans-64" d="M 2906 2969 
L 2906 4863 
L 3481 4863 
L 3481 0 
L 2906 0 
L 2906 525 
Q 2725 213 2448 61 
Q 2172 -91 1784 -91 
Q 1150 -91 751 415 
Q 353 922 353 1747 
Q 353 2572 751 3078 
Q 1150 3584 1784 3584 
Q 2172 3584 2448 3432 
Q 2725 3281 2906 2969 
z
M 947 1747 
Q 947 1113 1208 752 
Q 1469 391 1925 391 
Q 2381 391 2643 752 
Q 2906 1113 2906 1747 
Q 2906 2381 2643 2742 
Q 2381 3103 1925 3103 
Q 1469 3103 1208 2742 
Q 947 2381 947 1747 
z
" transform="scale(0.015625)"/>
       <path id="DejaVuSans-50" d="M 1259 4147 
L 1259 2394 
L 2053 2394 
Q 2494 2394 2734 2622 
Q 2975 2850 2975 3272 
Q 2975 3691 2734 3919 
Q 2494 4147 2053 4147 
L 1259 4147 
z
M 628 4666 
L 2053 4666 
Q 2838 4666 3239 4311 
Q 3641 3956 3641 3272 
Q 3641 2581 3239 2228 
Q 2838 1875 2053 1875 
L 1259 1875 
L 1259 0 
L 628 0 
L 628 4666 
z
" transform="scale(0.015625)"/>
      </defs>
      <use xlink:href="#DejaVuSans-41"/>
      <use xlink:href="#DejaVuSans-63" x="66.658203"/>
      <use xlink:href="#DejaVuSans-6f" x="121.638672"/>
      <use xlink:href="#DejaVuSans-75" x="182.820312"/>
      <use xlink:href="#DejaVuSans-73" x="246.199219"/>
      <use xlink:href="#DejaVuSans-74" x="298.298828"/>
      <use xlink:href="#DejaVuSans-69" x="337.507812"/>
      <use xlink:href="#DejaVuSans-63" x="365.291016"/>
      <use xlink:href="#DejaVuSans-20" x="420.271484"/>
      <use xlink:href="#DejaVuSans-47" x="452.058594"/>
      <use xlink:href="#DejaVuSans-72" x="529.548828"/>
      <use xlink:href="#DejaVuSans-61" x="570.662109"/>
      <use xlink:href="#DejaVuSans-6e" x="631.941406"/>
      <use xlink:href="#DejaVuSans-64" x="695.320312"/>
      <use xlink:href="#DejaVuSans-20" x="758.796875"/>
      <use xlink:href="#DejaVuSans-50" x="790.583984"/>
      <use xlink:href="#DejaVuSans-69" x="848.636719"/>
      <use xlink:href="#DejaVuSans-61" x="876.419922"/>
      <use xlink:href="#DejaVuSans-6e" x="937.699219"/>
      <use xlink:href="#DejaVuSans-6f" x="1001.078125"/>
     </g>
    </g>
    <g id="patch_9">
     <path d="M 521.1571 32.688377 
L 537.8171 32.688377 
L 537.8171 26.857377 
L 521.1571 26.857377 
z
" style="fill: #d62728; stroke: #d62728; stroke-linejoin: miter"/>
    </g>
    <g id="text_26">
     <!-- Flute -->
     <g transform="translate(544.4811 32.688377) scale(0.0833 -0.0833)">
      <defs>
       <path id="DejaVuSans-46" d="M 628 4666 
L 3309 4666 
L 3309 4134 
L 1259 4134 
L 1259 2759 
L 3109 2759 
L 3109 2228 
L 1259 2228 
L 1259 0 
L 628 0 
L 628 4666 
z
" transform="scale(0.015625)"/>
       <path id="DejaVuSans-6c" d="M 603 4863 
L 1178 4863 
L 1178 0 
L 603 0 
L 603 4863 
z
" transform="scale(0.015625)"/>
       <path id="DejaVuSans-65" d="M 3597 1894 
L 3597 1613 
L 953 1613 
Q 991 1019 1311 708 
Q 1631 397 2203 397 
Q 2534 397 2845 478 
Q 3156 559 3463 722 
L 3463 178 
Q 3153 47 2828 -22 
Q 2503 -91 2169 -91 
Q 1331 -91 842 396 
Q 353 884 353 1716 
Q 353 2575 817 3079 
Q 1281 3584 2069 3584 
Q 2775 3584 3186 3129 
Q 3597 2675 3597 1894 
z
M 3022 2063 
Q 3016 2534 2758 2815 
Q 2500 3097 2075 3097 
Q 1594 3097 1305 2825 
Q 1016 2553 972 2059 
L 3022 2063 
z
" transform="scale(0.015625)"/>
      </defs>
      <use xlink:href="#DejaVuSans-46"/>
      <use xlink:href="#DejaVuSans-6c" x="57.519531"/>
      <use xlink:href="#DejaVuSans-75" x="85.302734"/>
      <use xlink:href="#DejaVuSans-74" x="148.681641"/>
      <use xlink:href="#DejaVuSans-65" x="187.890625"/>
     </g>
    </g>
    <g id="patch_10">
     <path d="M 521.1571 44.915255 
L 537.8171 44.915255 
L 537.8171 39.084255 
L 521.1571 39.084255 
z
" style="fill: #f7b6d2; stroke: #f7b6d2; stroke-linejoin: miter"/>
    </g>
    <g id="text_27">
     <!-- Trumpet -->
     <g transform="translate(544.4811 44.915255) scale(0.0833 -0.0833)">
      <defs>
       <path id="DejaVuSans-54" d="M -19 4666 
L 3928 4666 
L 3928 4134 
L 2272 4134 
L 2272 0 
L 1638 0 
L 1638 4134 
L -19 4134 
L -19 4666 
z
" transform="scale(0.015625)"/>
       <path id="DejaVuSans-6d" d="M 3328 2828 
Q 3544 3216 3844 3400 
Q 4144 3584 4550 3584 
Q 5097 3584 5394 3201 
Q 5691 2819 5691 2113 
L 5691 0 
L 5113 0 
L 5113 2094 
Q 5113 2597 4934 2840 
Q 4756 3084 4391 3084 
Q 3944 3084 3684 2787 
Q 3425 2491 3425 1978 
L 3425 0 
L 2847 0 
L 2847 2094 
Q 2847 2600 2669 2842 
Q 2491 3084 2119 3084 
Q 1678 3084 1418 2786 
Q 1159 2488 1159 1978 
L 1159 0 
L 581 0 
L 581 3500 
L 1159 3500 
L 1159 2956 
Q 1356 3278 1631 3431 
Q 1906 3584 2284 3584 
Q 2666 3584 2933 3390 
Q 3200 3197 3328 2828 
z
" transform="scale(0.015625)"/>
       <path id="DejaVuSans-70" d="M 1159 525 
L 1159 -1331 
L 581 -1331 
L 581 3500 
L 1159 3500 
L 1159 2969 
Q 1341 3281 1617 3432 
Q 1894 3584 2278 3584 
Q 2916 3584 3314 3078 
Q 3713 2572 3713 1747 
Q 3713 922 3314 415 
Q 2916 -91 2278 -91 
Q 1894 -91 1617 61 
Q 1341 213 1159 525 
z
M 3116 1747 
Q 3116 2381 2855 2742 
Q 2594 3103 2138 3103 
Q 1681 3103 1420 2742 
Q 1159 2381 1159 1747 
Q 1159 1113 1420 752 
Q 1681 391 2138 391 
Q 2594 391 2855 752 
Q 3116 1113 3116 1747 
z
" transform="scale(0.015625)"/>
      </defs>
      <use xlink:href="#DejaVuSans-54"/>
      <use xlink:href="#DejaVuSans-72" x="46.333984"/>
      <use xlink:href="#DejaVuSans-75" x="87.447266"/>
      <use xlink:href="#DejaVuSans-6d" x="150.826172"/>
      <use xlink:href="#DejaVuSans-70" x="248.238281"/>
      <use xlink:href="#DejaVuSans-65" x="311.714844"/>
      <use xlink:href="#DejaVuSans-74" x="373.238281"/>
     </g>
    </g>
    <g id="patch_11">
     <path d="M 521.1571 57.142133 
L 537.8171 57.142133 
L 537.8171 51.311133 
L 521.1571 51.311133 
z
" style="fill: #9edae5; stroke: #9edae5; stroke-linejoin: miter"/>
    </g>
    <g id="text_28">
     <!-- Violin -->
     <g transform="translate(544.4811 57.142133) scale(0.0833 -0.0833)">
      <defs>
       <path id="DejaVuSans-56" d="M 1831 0 
L 50 4666 
L 709 4666 
L 2188 738 
L 3669 4666 
L 4325 4666 
L 2547 0 
L 1831 0 
z
" transform="scale(0.015625)"/>
      </defs>
      <use xlink:href="#DejaVuSans-56"/>
      <use xlink:href="#DejaVuSans-69" x="66.158203"/>
      <use xlink:href="#DejaVuSans-6f" x="93.941406"/>
      <use xlink:href="#DejaVuSans-6c" x="155.123047"/>
      <use xlink:href="#DejaVuSans-69" x="182.90625"/>
      <use xlink:href="#DejaVuSans-6e" x="210.689453"/>
     </g>
    </g>
   </g>
  </g>
 </g>
 <defs>
  <clipPath id="pd20f855785">
   <rect x="30.49" y="10.8" width="482.51" height="249.32"/>
  </clipPath>
 </defs>
</svg>
