<?xml version="1.0" encoding="utf-8" standalone="no"?>
<!DOCTYPE svg PUBLIC "-//W3C//DTD SVG 1.1//EN"
  "http://www.w3.org/Graphics/SVG/1.1/DTD/svg11.dtd">
<svg xmlns:xlink="http://www.w3.org/1999/xlink" width="576pt" height="216pt" viewBox="0 0 576 216" xmlns="http://www.w3.org/2000/svg" version="1.1">
 <metadata>
  <rdf:RDF xmlns:dc="http://purl.org/dc/elements/1.1/" xmlns:cc="http://creativecommons.org/ns#" xmlns:rdf="http://www.w3.org/1999/02/22-rdf-syntax-ns#">
   <cc:Work>
    <dc:type rdf:resource="http://purl.org/dc/dcmitype/StillImage"/>
    <dc:date>2026-03-25T11:16:40.728507</dc:date>
    <dc:format>image/svg+xml</dc:format>
    <dc:creator>
     <cc:Agent>
      <dc:title>Matplotlib v3.9.2, https://matplotlib.org/</dc:title>
     </cc:Agent>
    </dc:creator>
   </cc:Work>
  </rdf:RDF>
 </metadata>
 <defs>
  <style type="text/css">*{stroke-linejoin: round; stroke-linecap: butt}</style>
 </defs>
 <g id="figure_1">
  <g id="patch_1">
   <path d="M 0 216 
L 576 216 
L 576 0 
L 0 0 
z
" style="fill: #ffffff"/>
  </g>
  <g id="axes_1">
   <g id="patch_2">
    <path d="M 37.33 188.12 
L 565.2 188.12 
L 565.2 10.8 
L 37.33 10.8 
z
" style="fill: #ffffff"/>
   </g>
   <g id="matplotlib.axis_1">
    <g id="xtick_1">
     <g id="line2d_1">
      <defs>
       <path id="m60496a79f3" d="M 0 0 
L 0 3.5 
" style="stroke: #000000; stroke-width: 0.8"/>
      </defs>
      <g>
       <use xlink:href="#m60496a79f3" x="62.122563" y="188.12" style="stroke: #000000; stroke-width: 0.8"/>
      </g>
     </g>
     <g id="text_1">
      <!-- 0 -->
      <g transform="translate(58.941313 202.718437) scale(0.1 -0.1)">
       <defs>
        <path id="DejaVuSans-30" d="M 2034 4250 
Q 1547 4250 1301 3770 
Q 1056 3291 1056 2328 
Q 1056 1369 1301 889 
Q 1547 409 2034 409 
Q 2525 409 2770 889 
Q 3016 1369 3016 2328 
Q 3016 3291 2770 3770 
Q 2525 4250 2034 4250 
z
M 2034 4750 
Q 2819 4750 3233 4129 
Q 3647 3509 3647 2328 
Q 3647 1150 3233 529 
Q 2819 -91 2034 -91 
Q 1250 -91 836 529 
Q 422 1150 422 2328 
Q 422 3509 836 4129 
Q 1250 4750 2034 4750 
z
" transform="scale(0.015625)"/>
       </defs>
       <use xlink:href="#DejaVuSans-30"/>
      </g>
     </g>
    </g>
    <g id="xtick_2">
     <g id="line2d_2">
      <g>
       <use xlink:href="#m60496a79f3" x="141.969787" y="188.12" style="stroke: #000000; stroke-width: 0.8"/>
      </g>
     </g>
     <g id="text_2">
      <!-- 1 -->
      <g transform="translate(138.788537 202.718437) scale(0.1 -0.1)">
       <defs>
        <path id="DejaVuSans-31" d="M 794 531 
L 1825 531 
L 1825 4091 
L 703 3866 
L 703 4441 
L 1819 4666 
L 2450 4666 
L 2450 531 
L 3481 531 
L 3481 0 
L 794 0 
L 794 531 
z
" transform="scale(0.015625)"/>
       </defs>
       <use xlink:href="#DejaVuSans-31"/>
      </g>
     </g>
    </g>
    <g id="xtick_3">
     <g id="line2d_3">
      <g>
       <use xlink:href="#m60496a79f3" x="221.817012" y="188.12" style="stroke: #000000; stroke-width: 0.8"/>
      </g>
     </g>
     <g id="text_3">
      <!-- 2 -->
      <g transform="translate(218.635762 202.718437) scale(0.1 -0.1)">
       <defs>
        <path id="DejaVuSans-32" d="M 1228 531 
L 3431 531 
L 3431 0 
L 469 0 
L 469 531 
Q 828 903 1448 1529 
Q 2069 2156 2228 2338 
Q 2531 2678 2651 2914 
Q 2772 3150 2772 3378 
Q 2772 3750 2511 3984 
Q 2250 4219 1831 4219 
Q 1534 4219 1204 4116 
Q 875 4013 500 3803 
L 500 4441 
Q 881 4594 1212 4672 
Q 1544 4750 1819 4750 
Q 2544 4750 2975 4387 
Q 3406 4025 3406 3419 
Q 3406 3131 3298 2873 
Q 3191 2616 2906 2266 
Q 2828 2175 2409 1742 
Q 1991 1309 1228 531 
z
" transform="scale(0.015625)"/>
       </defs>
       <use xlink:href="#DejaVuSans-32"/>
      </g>
     </g>
    </g>
    <g id="xtick_4">
     <g id="line2d_4">
      <g>
       <use xlink:href="#m60496a79f3" x="301.664236" y="188.12" style="stroke: #000000; stroke-width: 0.8"/>
      </g>
     </g>
     <g id="text_4">
      <!-- 3 -->
      <g transform="translate(298.482986 202.718437) scale(0.1 -0.1)">
       <defs>
        <path id="DejaVuSans-33" d="M 2597 2516 
Q 3050 2419 3304 2112 
Q 3559 1806 3559 1356 
Q 3559 666 3084 287 
Q 2609 -91 1734 -91 
Q 1441 -91 1130 -33 
Q 819 25 488 141 
L 488 750 
Q 750 597 1062 519 
Q 1375 441 1716 441 
Q 2309 441 2620 675 
Q 2931 909 2931 1356 
Q 2931 1769 2642 2001 
Q 2353 2234 1838 2234 
L 1294 2234 
L 1294 2753 
L 1863 2753 
Q 2328 2753 2575 2939 
Q 2822 3125 2822 3475 
Q 2822 3834 2567 4026 
Q 2313 4219 1838 4219 
Q 1578 4219 1281 4162 
Q 984 4106 628 3988 
L 628 4550 
Q 988 4650 1302 4700 
Q 1616 4750 1894 4750 
Q 2613 4750 3031 4423 
Q 3450 4097 3450 3541 
Q 3450 3153 3228 2886 
Q 3006 2619 2597 2516 
z
" transform="scale(0.015625)"/>
       </defs>
       <use xlink:href="#DejaVuSans-33"/>
      </g>
     </g>
    </g>
    <g id="xtick_5">
     <g id="line2d_5">
      <g>
       <use xlink:href="#m60496a79f3" x="381.51146" y="188.12" style="stroke: #000000; stroke-width: 0.8"/>
      </g>
     </g>
     <g id="text_5">
      <!-- 4 -->
      <g transform="translate(378.33021 202.718437) scale(0.1 -0.1)">
       <defs>
        <path id="DejaVuSans-34" d="M 2419 4116 
L 825 1625 
L 2419 1625 
L 2419 4116 
z
M 2253 4666 
L 3047 4666 
L 3047 1625 
L 3713 1625 
L 3713 1100 
L 3047 1100 
L 3047 0 
L 2419 0 
L 2419 1100 
L 313 1100 
L 313 1709 
L 2253 4666 
z
" transform="scale(0.015625)"/>
       </defs>
       <use xlink:href="#DejaVuSans-34"/>
      </g>
     </g>
    </g>
    <g id="xtick_6">
     <g id="line2d_6">
      <g>
       <use xlink:href="#m60496a79f3" x="461.358685" y="188.12" style="stroke: #000000; stroke-width: 0.8"/>
      </g>
     </g>
     <g id="text_6">
      <!-- 5 -->
      <g transform="translate(458.177435 202.718437) scale(0.1 -0.1)">
       <defs>
        <path id="DejaVuSans-35" d="M 691 4666 
L 3169 4666 
L 3169 4134 
L 1269 4134 
L 1269 2991 
Q 1406 3038 1543 3061 
Q 1681 3084 1819 3084 
Q 2600 3084 3056 2656 
Q 3513 2228 3513 1497 
Q 3513 744 3044 326 
Q 2575 -91 1722 -91 
Q 1428 -91 1123 -41 
Q 819 9 494 109 
L 494 744 
Q 775 591 1075 516 
Q 1375 441 1709 441 
Q 2250 441 2565 725 
Q 2881 1009 2881 1497 
Q 2881 1984 2565 2268 
Q 2250 2553 1709 2553 
Q 1456 2553 1204 2497 
Q 953 2441 691 2322 
L 691 4666 
z
" transform="scale(0.015625)"/>
       </defs>
       <use xlink:href="#DejaVuSans-35"/>
      </g>
     </g>
    </g>
    <g id="xtick_7">
     <g id="line2d_7">
      <g>
       <use xlink:href="#m60496a79f3" x="541.205909" y="188.12" style="stroke: #000000; stroke-width: 0.8"/>
      </g>
     </g>
     <g id="text_7">
      <!-- 6 -->
      <g transform="translate(538.024659 202.718437) scale(0.1 -0.1)">
       <defs>
        <path id="DejaVuSans-36" d="M 2113 2584 
Q 1688 2584 1439 2293 
Q 1191 2003 1191 1497 
Q 1191 994 1439 701 
Q 1688 409 2113 409 
Q 2538 409 2786 701 
Q 3034 994 3034 1497 
Q 3034 2003 2786 2293 
Q 2538 2584 2113 2584 
z
M 3366 4563 
L 3366 3988 
Q 3128 4100 2886 4159 
Q 2644 4219 2406 4219 
Q 1781 4219 1451 3797 
Q 1122 3375 1075 2522 
Q 1259 2794 1537 2939 
Q 1816 3084 2150 3084 
Q 2853 3084 3261 2657 
Q 3669 2231 3669 1497 
Q 3669 778 3244 343 
Q 2819 -91 2113 -91 
Q 1303 -91 875 529 
Q 447 1150 447 2328 
Q 447 3434 972 4092 
Q 1497 4750 2381 4750 
Q 2619 4750 2861 4703 
Q 3103 4656 3366 4563 
z
" transform="scale(0.015625)"/>
       </defs>
       <use xlink:href="#DejaVuSans-36"/>
      </g>
     </g>
    </g>
   </g>
   <g id="matplotlib.axis_2">
    <g id="ytick_1">
     <g id="line2d_8">
      <defs>
       <path id="m879c64307c" d="M 0 0 
L -3.5 0 
" style="stroke: #000000; stroke-width: 0.8"/>
      </defs>
      <g>
       <use xlink:href="#m879c64307c" x="37.33" y="183.053714" style="stroke: #000000; stroke-width: 0.8"/>
      </g>
     </g>
     <g id="text_8">
      <!-- D3 -->
      <g transform="translate(16.2675 186.852933) scale(0.1 -0.1)">
       <defs>
        <path id="DejaVuSans-44" d="M 1259 4147 
L 1259 519 
L 2022 519 
Q 2988 519 3436 956 
Q 3884 1394 3884 2338 
Q 3884 3275 3436 3711 
Q 2988 4147 2022 4147 
L 1259 4147 
z
M 628 4666 
L 1925 4666 
Q 3281 4666 3915 4102 
Q 4550 3538 4550 2338 
Q 4550 1131 3912 565 
Q 3275 0 1925 0 
L 628 0 
L 628 4666 
z
" transform="scale(0.015625)"/>
       </defs>
       <use xlink:href="#DejaVuSans-44"/>
       <use xlink:href="#DejaVuSans-33" x="77.001953"/>
      </g>
     </g>
    </g>
    <g id="ytick_2">
     <g id="line2d_9">
      <g>
       <use xlink:href="#m879c64307c" x="37.33" y="152.656" style="stroke: #000000; stroke-width: 0.8"/>
      </g>
     </g>
     <g id="text_9">
      <!-- Ab3 -->
      <g transform="translate(10.778438 156.455219) scale(0.1 -0.1)">
       <defs>
        <path id="DejaVuSans-41" d="M 2188 4044 
L 1331 1722 
L 3047 1722 
L 2188 4044 
z
M 1831 4666 
L 2547 4666 
L 4325 0 
L 3669 0 
L 3244 1197 
L 1141 1197 
L 716 0 
L 50 0 
L 1831 4666 
z
" transform="scale(0.015625)"/>
        <path id="DejaVuSans-62" d="M 3116 1747 
Q 3116 2381 2855 2742 
Q 2594 3103 2138 3103 
Q 1681 3103 1420 2742 
Q 1159 2381 1159 1747 
Q 1159 1113 1420 752 
Q 1681 391 2138 391 
Q 2594 391 2855 752 
Q 3116 1113 3116 1747 
z
M 1159 2969 
Q 1341 3281 1617 3432 
Q 1894 3584 2278 3584 
Q 2916 3584 3314 3078 
Q 3713 2572 3713 1747 
Q 3713 922 3314 415 
Q 2916 -91 2278 -91 
Q 1894 -91 1617 61 
Q 1341 213 1159 525 
L 1159 0 
L 581 0 
L 581 4863 
L 1159 4863 
L 1159 2969 
z
" transform="scale(0.015625)"/>
       </defs>
       <use xlink:href="#DejaVuSans-41"/>
       <use xlink:href="#DejaVuSans-62" x="68.408203"/>
       <use xlink:href="#DejaVuSans-33" x="131.884766"/>
      </g>
     </g>
    </g>
    <g id="ytick_3">
     <g id="line2d_10">
      <g>
       <use xlink:href="#m879c64307c" x="37.33" y="122.258286" style="stroke: #000000; stroke-width: 0.8"/>
      </g>
     </g>
     <g id="text_10">
      <!-- D4 -->
      <g transform="translate(16.2675 126.057504) scale(0.1 -0.1)">
       <use xlink:href="#DejaVuSans-44"/>
       <use xlink:href="#DejaVuSans-34" x="77.001953"/>
      </g>
     </g>
    </g>
    <g id="ytick_4">
     <g id="line2d_11">
      <g>
       <use xlink:href="#m879c64307c" x="37.33" y="91.860571" style="stroke: #000000; stroke-width: 0.8"/>
      </g>
     </g>
     <g id="text_11">
      <!-- Ab4 -->
      <g transform="translate(10.778438 95.65979) scale(0.1 -0.1)">
       <use xlink:href="#DejaVuSans-41"/>
       <use xlink:href="#DejaVuSans-62" x="68.408203"/>
       <use xlink:href="#DejaVuSans-34" x="131.884766"/>
      </g>
     </g>
    </g>
    <g id="ytick_5">
     <g id="line2d_12">
      <g>
       <use xlink:href="#m879c64307c" x="37.33" y="61.462857" style="stroke: #000000; stroke-width: 0.8"/>
      </g>
     </g>
     <g id="text_12">
      <!-- D5 -->
      <g transform="translate(16.2675 65.262076) scale(0.1 -0.1)">
       <use xlink:href="#DejaVuSans-44"/>
       <use xlink:href="#DejaVuSans-35" x="77.001953"/>
      </g>
     </g>
    </g>
    <g id="ytick_6">
     <g id="line2d_13">
      <g>
       <use xlink:href="#m879c64307c" x="37.33" y="31.065143" style="stroke: #000000; stroke-width: 0.8"/>
      </g>
     </g>
     <g id="text_13">
      <!-- Ab5 -->
      <g transform="translate(10.778438 34.864362) scale(0.1 -0.1)">
       <use xlink:href="#DejaVuSans-41"/>
       <use xlink:href="#DejaVuSans-62" x="68.408203"/>
       <use xlink:href="#DejaVuSans-35" x="131.884766"/>
      </g>
     </g>
    </g>
   </g>
   <g id="LineCollection_1">
    <path d="M 62.122563 157.722286 
L 72.103466 157.722286 
" clip-path="url(#pe65dba57b4)" style="fill: none; stroke: #000000; stroke-width: 5"/>
   </g>
   <g id="LineCollection_2">
    <path d="M 62.122563 96.926857 
L 92.065272 96.926857 
" clip-path="url(#pe65dba57b4)" style="fill: none; stroke: #000000; stroke-width: 5"/>
   </g>
   <g id="LineCollection_3">
    <path d="M 72.103466 122.258286 
L 82.084369 122.258286 
" clip-path="url(#pe65dba57b4)" style="fill: none; stroke: #000000; stroke-width: 5"/>
   </g>
   <g id="LineCollection_4">
    <path d="M 82.084369 137.457143 
L 92.065272 137.457143 
" clip-path="url(#pe65dba57b4)" style="fill: none; stroke: #000000; stroke-width: 5"/>
   </g>
   <g id="LineCollection_5">
    <path d="M 92.065272 122.258286 
L 102.046175 122.258286 
" clip-path="url(#pe65dba57b4)" style="fill: none; stroke: #000000; stroke-width: 5"/>
   </g>
   <g id="LineCollection_6">
    <path d="M 92.065272 76.661714 
L 102.046175 76.661714 
" clip-path="url(#pe65dba57b4)" style="fill: none; stroke: #000000; stroke-width: 5"/>
   </g>
   <g id="LineCollection_7">
    <path d="M 102.046175 137.457143 
L 112.027078 137.457143 
" clip-path="url(#pe65dba57b4)" style="fill: none; stroke: #000000; stroke-width: 5"/>
   </g>
   <g id="LineCollection_8">
    <path d="M 102.046175 96.926857 
L 112.027078 96.926857 
" clip-path="url(#pe65dba57b4)" style="fill: none; stroke: #000000; stroke-width: 5"/>
   </g>
   <g id="LineCollection_9">
    <path d="M 112.027078 122.258286 
L 122.007981 122.258286 
" clip-path="url(#pe65dba57b4)" style="fill: none; stroke: #000000; stroke-width: 5"/>
   </g>
   <g id="LineCollection_10">
    <path d="M 112.027078 76.661714 
L 122.007981 76.661714 
" clip-path="url(#pe65dba57b4)" style="fill: none; stroke: #000000; stroke-width: 5"/>
   </g>
   <g id="LineCollection_11">
    <path d="M 122.007981 157.722286 
L 131.988884 157.722286 
" clip-path="url(#pe65dba57b4)" style="fill: none; stroke: #000000; stroke-width: 5"/>
   </g>
   <g id="LineCollection_12">
    <path d="M 122.007981 61.462857 
L 141.969787 61.462857 
" clip-path="url(#pe65dba57b4)" style="fill: none; stroke: #000000; stroke-width: 5"/>
   </g>
   <g id="LineCollection_13">
    <path d="M 131.988884 122.258286 
L 141.969787 122.258286 
" clip-path="url(#pe65dba57b4)" style="fill: none; stroke: #000000; stroke-width: 5"/>
   </g>
   <g id="LineCollection_14">
    <path d="M 141.969787 137.457143 
L 151.950691 137.457143 
" clip-path="url(#pe65dba57b4)" style="fill: none; stroke: #000000; stroke-width: 5"/>
   </g>
   <g id="LineCollection_15">
    <path d="M 141.969787 61.462857 
L 161.931594 61.462857 
" clip-path="url(#pe65dba57b4)" style="fill: none; stroke: #000000; stroke-width: 5"/>
   </g>
   <g id="LineCollection_16">
    <path d="M 151.950691 122.258286 
L 161.931594 122.258286 
" clip-path="url(#pe65dba57b4)" style="fill: none; stroke: #000000; stroke-width: 5"/>
   </g>
   <g id="LineCollection_17">
    <path d="M 161.931594 137.457143 
L 171.912497 137.457143 
" clip-path="url(#pe65dba57b4)" style="fill: none; stroke: #000000; stroke-width: 5"/>
   </g>
   <g id="LineCollection_18">
    <path d="M 161.931594 61.462857 
L 181.8934 61.462857 
" clip-path="url(#pe65dba57b4)" style="fill: none; stroke: #000000; stroke-width: 5"/>
   </g>
   <g id="LineCollection_19">
    <path d="M 171.912497 122.258286 
L 181.8934 122.258286 
" clip-path="url(#pe65dba57b4)" style="fill: none; stroke: #000000; stroke-width: 5"/>
   </g>
   <g id="LineCollection_20">
    <path d="M 181.8934 157.722286 
L 191.874303 157.722286 
" clip-path="url(#pe65dba57b4)" style="fill: none; stroke: #000000; stroke-width: 5"/>
   </g>
   <g id="LineCollection_21">
    <path d="M 181.8934 61.462857 
L 211.836109 61.462857 
" clip-path="url(#pe65dba57b4)" style="fill: none; stroke: #000000; stroke-width: 5"/>
   </g>
   <g id="LineCollection_22">
    <path d="M 191.874303 122.258286 
L 201.855206 122.258286 
" clip-path="url(#pe65dba57b4)" style="fill: none; stroke: #000000; stroke-width: 5"/>
   </g>
   <g id="LineCollection_23">
    <path d="M 201.855206 137.457143 
L 211.836109 137.457143 
" clip-path="url(#pe65dba57b4)" style="fill: none; stroke: #000000; stroke-width: 5"/>
   </g>
   <g id="LineCollection_24">
    <path d="M 211.836109 122.258286 
L 221.817012 122.258286 
" clip-path="url(#pe65dba57b4)" style="fill: none; stroke: #000000; stroke-width: 5"/>
   </g>
   <g id="LineCollection_25">
    <path d="M 211.836109 15.866286 
L 221.817012 15.866286 
" clip-path="url(#pe65dba57b4)" style="fill: none; stroke: #000000; stroke-width: 5"/>
   </g>
   <g id="LineCollection_26">
    <path d="M 221.817012 137.457143 
L 231.797915 137.457143 
" clip-path="url(#pe65dba57b4)" style="fill: none; stroke: #000000; stroke-width: 5"/>
   </g>
   <g id="LineCollection_27">
    <path d="M 221.817012 25.998857 
L 231.797915 25.998857 
" clip-path="url(#pe65dba57b4)" style="fill: none; stroke: #000000; stroke-width: 5"/>
   </g>
   <g id="LineCollection_28">
    <path d="M 231.797915 122.258286 
L 241.778818 122.258286 
" clip-path="url(#pe65dba57b4)" style="fill: none; stroke: #000000; stroke-width: 5"/>
   </g>
   <g id="LineCollection_29">
    <path d="M 231.797915 36.131429 
L 241.778818 36.131429 
" clip-path="url(#pe65dba57b4)" style="fill: none; stroke: #000000; stroke-width: 5"/>
   </g>
   <g id="LineCollection_30">
    <path d="M 241.778818 147.589714 
L 251.759721 147.589714 
" clip-path="url(#pe65dba57b4)" style="fill: none; stroke: #000000; stroke-width: 5"/>
   </g>
   <g id="LineCollection_31">
    <path d="M 241.778818 36.131429 
L 281.70243 36.131429 
" clip-path="url(#pe65dba57b4)" style="fill: none; stroke: #000000; stroke-width: 5"/>
   </g>
   <g id="LineCollection_32">
    <path d="M 251.759721 122.258286 
L 261.740624 122.258286 
" clip-path="url(#pe65dba57b4)" style="fill: none; stroke: #000000; stroke-width: 5"/>
   </g>
   <g id="LineCollection_33">
    <path d="M 261.740624 132.390857 
L 271.721527 132.390857 
" clip-path="url(#pe65dba57b4)" style="fill: none; stroke: #000000; stroke-width: 5"/>
   </g>
   <g id="LineCollection_34">
    <path d="M 271.721527 122.258286 
L 281.70243 122.258286 
" clip-path="url(#pe65dba57b4)" style="fill: none; stroke: #000000; stroke-width: 5"/>
   </g>
   <g id="LineCollection_35">
    <path d="M 281.70243 132.390857 
L 291.683333 132.390857 
" clip-path="url(#pe65dba57b4)" style="fill: none; stroke: #000000; stroke-width: 5"/>
   </g>
   <g id="LineCollection_36">
    <path d="M 281.70243 41.197714 
L 301.664236 41.197714 
" clip-path="url(#pe65dba57b4)" style="fill: none; stroke: #000000; stroke-width: 5"/>
   </g>
   <g id="LineCollection_37">
    <path d="M 291.683333 122.258286 
L 301.664236 122.258286 
" clip-path="url(#pe65dba57b4)" style="fill: none; stroke: #000000; stroke-width: 5"/>
   </g>
   <g id="LineCollection_38">
    <path d="M 301.664236 162.788571 
L 311.645139 162.788571 
" clip-path="url(#pe65dba57b4)" style="fill: none; stroke: #000000; stroke-width: 5"/>
   </g>
   <g id="LineCollection_39">
    <path d="M 301.664236 25.998857 
L 331.606945 25.998857 
" clip-path="url(#pe65dba57b4)" style="fill: none; stroke: #000000; stroke-width: 5"/>
   </g>
   <g id="LineCollection_40">
    <path d="M 311.645139 122.258286 
L 321.626042 122.258286 
" clip-path="url(#pe65dba57b4)" style="fill: none; stroke: #000000; stroke-width: 5"/>
   </g>
   <g id="LineCollection_41">
    <path d="M 321.626042 147.589714 
L 331.606945 147.589714 
" clip-path="url(#pe65dba57b4)" style="fill: none; stroke: #000000; stroke-width: 5"/>
   </g>
   <g id="LineCollection_42">
    <path d="M 331.606945 122.258286 
L 341.587848 122.258286 
" clip-path="url(#pe65dba57b4)" style="fill: none; stroke: #000000; stroke-width: 5"/>
   </g>
   <g id="LineCollection_43">
    <path d="M 331.606945 41.197714 
L 341.587848 41.197714 
" clip-path="url(#pe65dba57b4)" style="fill: none; stroke: #000000; stroke-width: 5"/>
   </g>
   <g id="LineCollection_44">
    <path d="M 341.587848 147.589714 
L 351.568751 147.589714 
" clip-path="url(#pe65dba57b4)" style="fill: none; stroke: #000000; stroke-width: 5"/>
   </g>
   <g id="LineCollection_45">
    <path d="M 341.587848 61.462857 
L 351.568751 61.462857 
" clip-path="url(#pe65dba57b4)" style="fill: none; stroke: #000000; stroke-width: 5"/>
   </g>
   <g id="LineCollection_46">
    <path d="M 351.568751 122.258286 
L 361.549654 122.258286 
" clip-path="url(#pe65dba57b4)" style="fill: none; stroke: #000000; stroke-width: 5"/>
   </g>
   <g id="LineCollection_47">
    <path d="M 351.568751 71.595429 
L 361.549654 71.595429 
" clip-path="url(#pe65dba57b4)" style="fill: none; stroke: #000000; stroke-width: 5"/>
   </g>
   <g id="LineCollection_48">
    <path d="M 361.549654 157.722286 
L 371.530557 157.722286 
" clip-path="url(#pe65dba57b4)" style="fill: none; stroke: #000000; stroke-width: 5"/>
   </g>
   <g id="LineCollection_49">
    <path d="M 361.549654 81.728 
L 371.530557 81.728 
" clip-path="url(#pe65dba57b4)" style="fill: none; stroke: #000000; stroke-width: 5"/>
   </g>
   <g id="LineCollection_50">
    <path d="M 371.530557 122.258286 
L 381.51146 122.258286 
" clip-path="url(#pe65dba57b4)" style="fill: none; stroke: #000000; stroke-width: 5"/>
   </g>
   <g id="LineCollection_51">
    <path d="M 371.530557 76.661714 
L 381.51146 76.661714 
" clip-path="url(#pe65dba57b4)" style="fill: none; stroke: #000000; stroke-width: 5"/>
   </g>
   <g id="LineCollection_52">
    <path d="M 381.51146 137.457143 
L 391.492363 137.457143 
" clip-path="url(#pe65dba57b4)" style="fill: none; stroke: #000000; stroke-width: 5"/>
   </g>
   <g id="LineCollection_53">
    <path d="M 381.51146 51.330286 
L 391.492363 51.330286 
" clip-path="url(#pe65dba57b4)" style="fill: none; stroke: #000000; stroke-width: 5"/>
   </g>
   <g id="LineCollection_54">
    <path d="M 391.492363 122.258286 
L 401.473267 122.258286 
" clip-path="url(#pe65dba57b4)" style="fill: none; stroke: #000000; stroke-width: 5"/>
   </g>
   <g id="LineCollection_55">
    <path d="M 391.492363 61.462857 
L 401.473267 61.462857 
" clip-path="url(#pe65dba57b4)" style="fill: none; stroke: #000000; stroke-width: 5"/>
   </g>
   <g id="LineCollection_56">
    <path d="M 401.473267 137.457143 
L 411.45417 137.457143 
" clip-path="url(#pe65dba57b4)" style="fill: none; stroke: #000000; stroke-width: 5"/>
   </g>
   <g id="LineCollection_57">
    <path d="M 401.473267 76.661714 
L 411.45417 76.661714 
" clip-path="url(#pe65dba57b4)" style="fill: none; stroke: #000000; stroke-width: 5"/>
   </g>
   <g id="LineCollection_58">
    <path d="M 411.45417 122.258286 
L 421.435073 122.258286 
" clip-path="url(#pe65dba57b4)" style="fill: none; stroke: #000000; stroke-width: 5"/>
   </g>
   <g id="LineCollection_59">
    <path d="M 411.45417 96.926857 
L 421.435073 96.926857 
" clip-path="url(#pe65dba57b4)" style="fill: none; stroke: #000000; stroke-width: 5"/>
   </g>
   <g id="LineCollection_60">
    <path d="M 421.435073 132.390857 
L 431.415976 132.390857 
" clip-path="url(#pe65dba57b4)" style="fill: none; stroke: #000000; stroke-width: 5"/>
   </g>
   <g id="LineCollection_61">
    <path d="M 421.435073 101.993143 
L 441.396879 101.993143 
" clip-path="url(#pe65dba57b4)" style="fill: none; stroke: #000000; stroke-width: 5"/>
   </g>
   <g id="LineCollection_62">
    <path d="M 431.415976 122.258286 
L 441.396879 122.258286 
" clip-path="url(#pe65dba57b4)" style="fill: none; stroke: #000000; stroke-width: 5"/>
   </g>
   <g id="LineCollection_63">
    <path d="M 441.396879 147.589714 
L 451.377782 147.589714 
" clip-path="url(#pe65dba57b4)" style="fill: none; stroke: #000000; stroke-width: 5"/>
   </g>
   <g id="LineCollection_64">
    <path d="M 441.396879 101.993143 
L 461.358685 101.993143 
" clip-path="url(#pe65dba57b4)" style="fill: none; stroke: #000000; stroke-width: 5"/>
   </g>
   <g id="LineCollection_65">
    <path d="M 441.396879 71.595429 
L 461.358685 71.595429 
" clip-path="url(#pe65dba57b4)" style="fill: none; stroke: #000000; stroke-width: 5"/>
   </g>
   <g id="LineCollection_66">
    <path d="M 451.377782 122.258286 
L 461.358685 122.258286 
" clip-path="url(#pe65dba57b4)" style="fill: none; stroke: #000000; stroke-width: 5"/>
   </g>
   <g id="LineCollection_67">
    <path d="M 461.358685 157.722286 
L 471.339588 157.722286 
" clip-path="url(#pe65dba57b4)" style="fill: none; stroke: #000000; stroke-width: 5"/>
   </g>
   <g id="LineCollection_68">
    <path d="M 461.358685 96.926857 
L 481.320491 96.926857 
" clip-path="url(#pe65dba57b4)" style="fill: none; stroke: #000000; stroke-width: 5"/>
   </g>
   <g id="LineCollection_69">
    <path d="M 461.358685 76.661714 
L 481.320491 76.661714 
" clip-path="url(#pe65dba57b4)" style="fill: none; stroke: #000000; stroke-width: 5"/>
   </g>
   <g id="LineCollection_70">
    <path d="M 471.339588 122.258286 
L 481.320491 122.258286 
" clip-path="url(#pe65dba57b4)" style="fill: none; stroke: #000000; stroke-width: 5"/>
   </g>
   <g id="LineCollection_71">
    <path d="M 481.320491 183.053714 
L 491.301394 183.053714 
" clip-path="url(#pe65dba57b4)" style="fill: none; stroke: #000000; stroke-width: 5"/>
   </g>
   <g id="LineCollection_72">
    <path d="M 481.320491 96.926857 
L 521.244103 96.926857 
" clip-path="url(#pe65dba57b4)" style="fill: none; stroke: #000000; stroke-width: 5"/>
   </g>
   <g id="LineCollection_73">
    <path d="M 481.320491 76.661714 
L 521.244103 76.661714 
" clip-path="url(#pe65dba57b4)" style="fill: none; stroke: #000000; stroke-width: 5"/>
   </g>
   <g id="LineCollection_74">
    <path d="M 491.301394 122.258286 
L 501.282297 122.258286 
" clip-path="url(#pe65dba57b4)" style="fill: none; stroke: #000000; stroke-width: 5"/>
   </g>
   <g id="LineCollection_75">
    <path d="M 501.282297 127.324571 
L 511.2632 127.324571 
" clip-path="url(#pe65dba57b4)" style="fill: none; stroke: #000000; stroke-width: 5"/>
   </g>
   <g id="LineCollection_76">
    <path d="M 511.2632 122.258286 
L 521.244103 122.258286 
" clip-path="url(#pe65dba57b4)" style="fill: none; stroke: #000000; stroke-width: 5"/>
   </g>
   <g id="LineCollection_77">
    <path d="M 521.244103 183.053714 
L 541.205909 183.053714 
" clip-path="url(#pe65dba57b4)" style="fill: none; stroke: #000000; stroke-width: 5"/>
   </g>
   <g id="LineCollection_78">
    <path d="M 521.244103 101.993143 
L 541.205909 101.993143 
" clip-path="url(#pe65dba57b4)" style="fill: none; stroke: #000000; stroke-width: 5"/>
   </g>
   <g id="LineCollection_79">
    <path d="M 521.244103 86.794286 
L 541.205909 86.794286 
" clip-path="url(#pe65dba57b4)" style="fill: none; stroke: #000000; stroke-width: 5"/>
   </g>
   <g id="LineCollection_80">
    <path d="M 61.324091 157.722286 
L 62.921035 157.722286 
" clip-path="url(#pe65dba57b4)" style="fill: none; stroke: #ff0000; stroke-width: 10"/>
   </g>
   <g id="LineCollection_81">
    <path d="M 61.324091 96.926857 
L 62.921035 96.926857 
" clip-path="url(#pe65dba57b4)" style="fill: none; stroke: #ff0000; stroke-width: 10"/>
   </g>
   <g id="LineCollection_82">
    <path d="M 71.304994 122.258286 
L 72.901938 122.258286 
" clip-path="url(#pe65dba57b4)" style="fill: none; stroke: #ff0000; stroke-width: 10"/>
   </g>
   <g id="LineCollection_83">
    <path d="M 81.285897 137.457143 
L 82.882841 137.457143 
" clip-path="url(#pe65dba57b4)" style="fill: none; stroke: #ff0000; stroke-width: 10"/>
   </g>
   <g id="LineCollection_84">
    <path d="M 91.2668 122.258286 
L 92.863745 122.258286 
" clip-path="url(#pe65dba57b4)" style="fill: none; stroke: #ff0000; stroke-width: 10"/>
   </g>
   <g id="LineCollection_85">
    <path d="M 91.2668 76.661714 
L 92.863745 76.661714 
" clip-path="url(#pe65dba57b4)" style="fill: none; stroke: #ff0000; stroke-width: 10"/>
   </g>
   <g id="LineCollection_86">
    <path d="M 101.247703 137.457143 
L 102.844648 137.457143 
" clip-path="url(#pe65dba57b4)" style="fill: none; stroke: #ff0000; stroke-width: 10"/>
   </g>
   <g id="LineCollection_87">
    <path d="M 101.247703 96.926857 
L 102.844648 96.926857 
" clip-path="url(#pe65dba57b4)" style="fill: none; stroke: #ff0000; stroke-width: 10"/>
   </g>
   <g id="LineCollection_88">
    <path d="M 111.228606 122.258286 
L 112.825551 122.258286 
" clip-path="url(#pe65dba57b4)" style="fill: none; stroke: #ff0000; stroke-width: 10"/>
   </g>
   <g id="LineCollection_89">
    <path d="M 111.228606 76.661714 
L 112.825551 76.661714 
" clip-path="url(#pe65dba57b4)" style="fill: none; stroke: #ff0000; stroke-width: 10"/>
   </g>
   <g id="LineCollection_90">
    <path d="M 121.209509 157.722286 
L 122.806454 157.722286 
" clip-path="url(#pe65dba57b4)" style="fill: none; stroke: #ff0000; stroke-width: 10"/>
   </g>
   <g id="LineCollection_91">
    <path d="M 121.209509 61.462857 
L 122.806454 61.462857 
" clip-path="url(#pe65dba57b4)" style="fill: none; stroke: #ff0000; stroke-width: 10"/>
   </g>
   <g id="LineCollection_92">
    <path d="M 131.190412 122.258286 
L 132.787357 122.258286 
" clip-path="url(#pe65dba57b4)" style="fill: none; stroke: #ff0000; stroke-width: 10"/>
   </g>
   <g id="LineCollection_93">
    <path d="M 141.171315 137.457143 
L 142.76826 137.457143 
" clip-path="url(#pe65dba57b4)" style="fill: none; stroke: #ff0000; stroke-width: 10"/>
   </g>
   <g id="LineCollection_94">
    <path d="M 141.171315 61.462857 
L 142.76826 61.462857 
" clip-path="url(#pe65dba57b4)" style="fill: none; stroke: #ff0000; stroke-width: 10"/>
   </g>
   <g id="LineCollection_95">
    <path d="M 151.152218 122.258286 
L 152.749163 122.258286 
" clip-path="url(#pe65dba57b4)" style="fill: none; stroke: #ff0000; stroke-width: 10"/>
   </g>
   <g id="LineCollection_96">
    <path d="M 161.133121 137.457143 
L 162.730066 137.457143 
" clip-path="url(#pe65dba57b4)" style="fill: none; stroke: #ff0000; stroke-width: 10"/>
   </g>
   <g id="LineCollection_97">
    <path d="M 161.133121 61.462857 
L 162.730066 61.462857 
" clip-path="url(#pe65dba57b4)" style="fill: none; stroke: #ff0000; stroke-width: 10"/>
   </g>
   <g id="LineCollection_98">
    <path d="M 171.114024 122.258286 
L 172.710969 122.258286 
" clip-path="url(#pe65dba57b4)" style="fill: none; stroke: #ff0000; stroke-width: 10"/>
   </g>
   <g id="LineCollection_99">
    <path d="M 181.094927 157.722286 
L 182.691872 157.722286 
" clip-path="url(#pe65dba57b4)" style="fill: none; stroke: #ff0000; stroke-width: 10"/>
   </g>
   <g id="LineCollection_100">
    <path d="M 181.094927 61.462857 
L 182.691872 61.462857 
" clip-path="url(#pe65dba57b4)" style="fill: none; stroke: #ff0000; stroke-width: 10"/>
   </g>
   <g id="LineCollection_101">
    <path d="M 191.07583 122.258286 
L 192.672775 122.258286 
" clip-path="url(#pe65dba57b4)" style="fill: none; stroke: #ff0000; stroke-width: 10"/>
   </g>
   <g id="LineCollection_102">
    <path d="M 201.056733 137.457143 
L 202.653678 137.457143 
" clip-path="url(#pe65dba57b4)" style="fill: none; stroke: #ff0000; stroke-width: 10"/>
   </g>
   <g id="LineCollection_103">
    <path d="M 211.037637 122.258286 
L 212.634581 122.258286 
" clip-path="url(#pe65dba57b4)" style="fill: none; stroke: #ff0000; stroke-width: 10"/>
   </g>
   <g id="LineCollection_104">
    <path d="M 211.037637 15.866286 
L 212.634581 15.866286 
" clip-path="url(#pe65dba57b4)" style="fill: none; stroke: #ff0000; stroke-width: 10"/>
   </g>
   <g id="LineCollection_105">
    <path d="M 221.01854 137.457143 
L 222.615484 137.457143 
" clip-path="url(#pe65dba57b4)" style="fill: none; stroke: #ff0000; stroke-width: 10"/>
   </g>
   <g id="LineCollection_106">
    <path d="M 221.01854 25.998857 
L 222.615484 25.998857 
" clip-path="url(#pe65dba57b4)" style="fill: none; stroke: #ff0000; stroke-width: 10"/>
   </g>
   <g id="LineCollection_107">
    <path d="M 230.999443 122.258286 
L 232.596387 122.258286 
" clip-path="url(#pe65dba57b4)" style="fill: none; stroke: #ff0000; stroke-width: 10"/>
   </g>
   <g id="LineCollection_108">
    <path d="M 230.999443 36.131429 
L 232.596387 36.131429 
" clip-path="url(#pe65dba57b4)" style="fill: none; stroke: #ff0000; stroke-width: 10"/>
   </g>
   <g id="LineCollection_109">
    <path d="M 240.980346 147.589714 
L 242.57729 147.589714 
" clip-path="url(#pe65dba57b4)" style="fill: none; stroke: #ff0000; stroke-width: 10"/>
   </g>
   <g id="LineCollection_110">
    <path d="M 240.980346 36.131429 
L 242.57729 36.131429 
" clip-path="url(#pe65dba57b4)" style="fill: none; stroke: #ff0000; stroke-width: 10"/>
   </g>
   <g id="LineCollection_111">
    <path d="M 250.961249 122.258286 
L 252.558193 122.258286 
" clip-path="url(#pe65dba57b4)" style="fill: none; stroke: #ff0000; stroke-width: 10"/>
   </g>
   <g id="LineCollection_112">
    <path d="M 260.942152 132.390857 
L 262.539096 132.390857 
" clip-path="url(#pe65dba57b4)" style="fill: none; stroke: #ff0000; stroke-width: 10"/>
   </g>
   <g id="LineCollection_113">
    <path d="M 270.923055 122.258286 
L 272.519999 122.258286 
" clip-path="url(#pe65dba57b4)" style="fill: none; stroke: #ff0000; stroke-width: 10"/>
   </g>
   <g id="LineCollection_114">
    <path d="M 280.903958 132.390857 
L 282.500902 132.390857 
" clip-path="url(#pe65dba57b4)" style="fill: none; stroke: #ff0000; stroke-width: 10"/>
   </g>
   <g id="LineCollection_115">
    <path d="M 280.903958 41.197714 
L 282.500902 41.197714 
" clip-path="url(#pe65dba57b4)" style="fill: none; stroke: #ff0000; stroke-width: 10"/>
   </g>
   <g id="LineCollection_116">
    <path d="M 290.884861 122.258286 
L 292.481805 122.258286 
" clip-path="url(#pe65dba57b4)" style="fill: none; stroke: #ff0000; stroke-width: 10"/>
   </g>
   <g id="LineCollection_117">
    <path d="M 300.865764 162.788571 
L 302.462708 162.788571 
" clip-path="url(#pe65dba57b4)" style="fill: none; stroke: #ff0000; stroke-width: 10"/>
   </g>
   <g id="LineCollection_118">
    <path d="M 300.865764 25.998857 
L 302.462708 25.998857 
" clip-path="url(#pe65dba57b4)" style="fill: none; stroke: #ff0000; stroke-width: 10"/>
   </g>
   <g id="LineCollection_119">
    <path d="M 310.846667 122.258286 
L 312.443611 122.258286 
" clip-path="url(#pe65dba57b4)" style="fill: none; stroke: #ff0000; stroke-width: 10"/>
   </g>
   <g id="LineCollection_120">
    <path d="M 320.82757 147.589714 
L 322.424514 147.589714 
" clip-path="url(#pe65dba57b4)" style="fill: none; stroke: #ff0000; stroke-width: 10"/>
   </g>
   <g id="LineCollection_121">
    <path d="M 330.808473 122.258286 
L 332.405417 122.258286 
" clip-path="url(#pe65dba57b4)" style="fill: none; stroke: #ff0000; stroke-width: 10"/>
   </g>
   <g id="LineCollection_122">
    <path d="M 330.808473 41.197714 
L 332.405417 41.197714 
" clip-path="url(#pe65dba57b4)" style="fill: none; stroke: #ff0000; stroke-width: 10"/>
   </g>
   <g id="LineCollection_123">
    <path d="M 340.789376 147.589714 
L 342.386321 147.589714 
" clip-path="url(#pe65dba57b4)" style="fill: none; stroke: #ff0000; stroke-width: 10"/>
   </g>
   <g id="LineCollection_124">
    <path d="M 340.789376 61.462857 
L 342.386321 61.462857 
" clip-path="url(#pe65dba57b4)" style="fill: none; stroke: #ff0000; stroke-width: 10"/>
   </g>
   <g id="LineCollection_125">
    <path d="M 350.770279 122.258286 
L 352.367224 122.258286 
" clip-path="url(#pe65dba57b4)" style="fill: none; stroke: #ff0000; stroke-width: 10"/>
   </g>
   <g id="LineCollection_126">
    <path d="M 350.770279 71.595429 
L 352.367224 71.595429 
" clip-path="url(#pe65dba57b4)" style="fill: none; stroke: #ff0000; stroke-width: 10"/>
   </g>
   <g id="LineCollection_127">
    <path d="M 360.751182 157.722286 
L 362.348127 157.722286 
" clip-path="url(#pe65dba57b4)" style="fill: none; stroke: #ff0000; stroke-width: 10"/>
   </g>
   <g id="LineCollection_128">
    <path d="M 360.751182 81.728 
L 362.348127 81.728 
" clip-path="url(#pe65dba57b4)" style="fill: none; stroke: #ff0000; stroke-width: 10"/>
   </g>
   <g id="LineCollection_129">
    <path d="M 370.732085 122.258286 
L 372.32903 122.258286 
" clip-path="url(#pe65dba57b4)" style="fill: none; stroke: #ff0000; stroke-width: 10"/>
   </g>
   <g id="LineCollection_130">
    <path d="M 370.732085 76.661714 
L 372.32903 76.661714 
" clip-path="url(#pe65dba57b4)" style="fill: none; stroke: #ff0000; stroke-width: 10"/>
   </g>
   <g id="LineCollection_131">
    <path d="M 380.712988 137.457143 
L 382.309933 137.457143 
" clip-path="url(#pe65dba57b4)" style="fill: none; stroke: #ff0000; stroke-width: 10"/>
   </g>
   <g id="LineCollection_132">
    <path d="M 380.712988 51.330286 
L 382.309933 51.330286 
" clip-path="url(#pe65dba57b4)" style="fill: none; stroke: #ff0000; stroke-width: 10"/>
   </g>
   <g id="LineCollection_133">
    <path d="M 390.693891 122.258286 
L 392.290836 122.258286 
" clip-path="url(#pe65dba57b4)" style="fill: none; stroke: #ff0000; stroke-width: 10"/>
   </g>
   <g id="LineCollection_134">
    <path d="M 390.693891 61.462857 
L 392.290836 61.462857 
" clip-path="url(#pe65dba57b4)" style="fill: none; stroke: #ff0000; stroke-width: 10"/>
   </g>
   <g id="LineCollection_135">
    <path d="M 400.674794 137.457143 
L 402.271739 137.457143 
" clip-path="url(#pe65dba57b4)" style="fill: none; stroke: #ff0000; stroke-width: 10"/>
   </g>
   <g id="LineCollection_136">
    <path d="M 400.674794 76.661714 
L 402.271739 76.661714 
" clip-path="url(#pe65dba57b4)" style="fill: none; stroke: #ff0000; stroke-width: 10"/>
   </g>
   <g id="LineCollection_137">
    <path d="M 410.655697 122.258286 
L 412.252642 122.258286 
" clip-path="url(#pe65dba57b4)" style="fill: none; stroke: #ff0000; stroke-width: 10"/>
   </g>
   <g id="LineCollection_138">
    <path d="M 410.655697 96.926857 
L 412.252642 96.926857 
" clip-path="url(#pe65dba57b4)" style="fill: none; stroke: #ff0000; stroke-width: 10"/>
   </g>
   <g id="LineCollection_139">
    <path d="M 420.6366 132.390857 
L 422.233545 132.390857 
" clip-path="url(#pe65dba57b4)" style="fill: none; stroke: #ff0000; stroke-width: 10"/>
   </g>
   <g id="LineCollection_140">
    <path d="M 420.6366 101.993143 
L 422.233545 101.993143 
" clip-path="url(#pe65dba57b4)" style="fill: none; stroke: #ff0000; stroke-width: 10"/>
   </g>
   <g id="LineCollection_141">
    <path d="M 430.617503 122.258286 
L 432.214448 122.258286 
" clip-path="url(#pe65dba57b4)" style="fill: none; stroke: #ff0000; stroke-width: 10"/>
   </g>
   <g id="LineCollection_142">
    <path d="M 440.598406 147.589714 
L 442.195351 147.589714 
" clip-path="url(#pe65dba57b4)" style="fill: none; stroke: #ff0000; stroke-width: 10"/>
   </g>
   <g id="LineCollection_143">
    <path d="M 440.598406 101.993143 
L 442.195351 101.993143 
" clip-path="url(#pe65dba57b4)" style="fill: none; stroke: #ff0000; stroke-width: 10"/>
   </g>
   <g id="LineCollection_144">
    <path d="M 440.598406 71.595429 
L 442.195351 71.595429 
" clip-path="url(#pe65dba57b4)" style="fill: none; stroke: #ff0000; stroke-width: 10"/>
   </g>
   <g id="LineCollection_145">
    <path d="M 450.579309 122.258286 
L 452.176254 122.258286 
" clip-path="url(#pe65dba57b4)" style="fill: none; stroke: #ff0000; stroke-width: 10"/>
   </g>
   <g id="LineCollection_146">
    <path d="M 460.560213 157.722286 
L 462.157157 157.722286 
" clip-path="url(#pe65dba57b4)" style="fill: none; stroke: #ff0000; stroke-width: 10"/>
   </g>
   <g id="LineCollection_147">
    <path d="M 460.560213 96.926857 
L 462.157157 96.926857 
" clip-path="url(#pe65dba57b4)" style="fill: none; stroke: #ff0000; stroke-width: 10"/>
   </g>
   <g id="LineCollection_148">
    <path d="M 460.560213 76.661714 
L 462.157157 76.661714 
" clip-path="url(#pe65dba57b4)" style="fill: none; stroke: #ff0000; stroke-width: 10"/>
   </g>
   <g id="LineCollection_149">
    <path d="M 470.541116 122.258286 
L 472.13806 122.258286 
" clip-path="url(#pe65dba57b4)" style="fill: none; stroke: #ff0000; stroke-width: 10"/>
   </g>
   <g id="LineCollection_150">
    <path d="M 480.522019 183.053714 
L 482.118963 183.053714 
" clip-path="url(#pe65dba57b4)" style="fill: none; stroke: #ff0000; stroke-width: 10"/>
   </g>
   <g id="LineCollection_151">
    <path d="M 480.522019 96.926857 
L 482.118963 96.926857 
" clip-path="url(#pe65dba57b4)" style="fill: none; stroke: #ff0000; stroke-width: 10"/>
   </g>
   <g id="LineCollection_152">
    <path d="M 480.522019 76.661714 
L 482.118963 76.661714 
" clip-path="url(#pe65dba57b4)" style="fill: none; stroke: #ff0000; stroke-width: 10"/>
   </g>
   <g id="LineCollection_153">
    <path d="M 490.502922 122.258286 
L 492.099866 122.258286 
" clip-path="url(#pe65dba57b4)" style="fill: none; stroke: #ff0000; stroke-width: 10"/>
   </g>
   <g id="LineCollection_154">
    <path d="M 500.483825 127.324571 
L 502.080769 127.324571 
" clip-path="url(#pe65dba57b4)" style="fill: none; stroke: #ff0000; stroke-width: 10"/>
   </g>
   <g id="LineCollection_155">
    <path d="M 510.464728 122.258286 
L 512.061672 122.258286 
" clip-path="url(#pe65dba57b4)" style="fill: none; stroke: #ff0000; stroke-width: 10"/>
   </g>
   <g id="LineCollection_156">
    <path d="M 520.445631 183.053714 
L 522.042575 183.053714 
" clip-path="url(#pe65dba57b4)" style="fill: none; stroke: #ff0000; stroke-width: 10"/>
   </g>
   <g id="LineCollection_157">
    <path d="M 520.445631 101.993143 
L 522.042575 101.993143 
" clip-path="url(#pe65dba57b4)" style="fill: none; stroke: #ff0000; stroke-width: 10"/>
   </g>
   <g id="LineCollection_158">
    <path d="M 520.445631 86.794286 
L 522.042575 86.794286 
" clip-path="url(#pe65dba57b4)" style="fill: none; stroke: #ff0000; stroke-width: 10"/>
   </g>
   <g id="patch_3">
    <path d="M 37.33 188.12 
L 37.33 10.8 
" style="fill: none; stroke: #000000; stroke-width: 0.8; stroke-linejoin: miter; stroke-linecap: square"/>
   </g>
   <g id="patch_4">
    <path d="M 565.2 188.12 
L 565.2 10.8 
" style="fill: none; stroke: #000000; stroke-width: 0.8; stroke-linejoin: miter; stroke-linecap: square"/>
   </g>
   <g id="patch_5">
    <path d="M 37.33 188.12 
L 565.2 188.12 
" style="fill: none; stroke: #000000; stroke-width: 0.8; stroke-linejoin: miter; stroke-linecap: square"/>
   </g>
   <g id="patch_6">
    <path d="M 37.33 10.8 
L 565.2 10.8 
" style="fill: none; stroke: #000000; stroke-width: 0.8; stroke-linejoin: miter; stroke-linecap: square"/>
   </g>
  </g>
 </g>
 <defs>
  <clipPath id="pe65dba57b4">
   <rect x="37.33" y="10.8" width="527.87" height="177.32"/>
  </clipPath>
 </defs>
</svg>
